<svg width="227" height="199" viewBox="0 0 227 199" fill="none" xmlns="http://www.w3.org/2000/svg">
<circle cx="127.5" cy="99.5" r="94.5" stroke="#F37334" stroke-width="10"/>
<path fill-rule="evenodd" clip-rule="evenodd" d="M122.522 15.0338C121.193 12.3546 120.108 9.91396 120.108 9.61008C120.108 7.97612 125.348 9.6403 135.233 14.4101C154.222 23.5743 159.775 34.5888 150.247 44.1842C144.51 49.9611 137.777 50.3016 131.794 45.1197C128.269 42.0666 127.275 39.4875 126.22 30.6559C125.512 24.7437 123.849 17.7131 122.522 15.0338ZM145.336 37.2203C145.4 33.5356 141.218 25.2146 136.906 20.448C135.053 18.3988 132.115 15.982 130.377 15.0784C128.411 14.0553 129.209 15.5445 132.487 19.0209C135.386 22.0947 139.453 28.0912 141.523 32.3471C143.592 36.6015 145.31 38.7954 145.336 37.2203ZM158.01 61.3941C161.478 58.0704 169.477 52.8233 175.784 49.7336C186.19 44.6344 191.201 42.9925 191.201 44.6837C191.201 45.0258 189.795 48.4258 188.076 52.241C186.043 56.7547 184.939 62.6764 184.917 69.1995C184.86 85.5073 180.011 91.7918 167.486 91.7918C157.858 91.7918 151.705 85.2289 151.705 74.9621C151.705 68.2513 152.39 66.778 158.01 61.3941ZM165.666 74.6885C167.557 69.4907 172.134 61.9334 176.27 57.1874C180.272 52.5926 183.264 48.8347 182.92 48.8347C182.574 48.8347 179.406 51.3214 175.881 54.3602C169.306 60.0274 163.98 69.5193 162.244 78.666C160.795 86.2964 161.922 84.9886 165.666 74.6885ZM144.687 147.477C156.527 147.477 173.335 138.43 192.609 121.684C199.221 115.94 207 113.641 207 117.432C207 120.657 196.151 134.163 185.215 144.553C172.407 156.721 151.239 171.344 146.438 171.339C144.556 171.339 134.84 169.124 124.847 166.421C110.843 162.631 104.279 161.638 96.2058 162.089L85.7345 162.674L77.2475 150.365C72.5806 143.593 68.762 136.811 68.762 135.29C68.762 131.139 81.2145 122.396 91.3793 119.412C100.566 116.713 112.309 117.37 136.696 121.941C141.041 122.756 149.964 123.465 156.523 123.516C169.279 123.618 172.243 125.053 172.243 131.123C172.243 136.068 168.034 137.71 151.705 139.14C139.396 140.219 138.233 140.616 137.77 143.897C137.309 147.173 137.895 147.477 144.687 147.477ZM48.0437 146.785C47.6456 145.74 50.0122 142.949 53.3015 140.583C56.5908 138.217 60.1423 136.473 61.1929 136.709C63.8945 137.312 83.6586 166.613 82.8165 168.766C81.7485 171.503 71.1998 177.937 69.5093 176.885C67.7936 175.816 49.1401 149.658 48.0437 146.785Z" fill="#F37334"/>
<path fill-rule="evenodd" clip-rule="evenodd" d="M68.2865 51.9069C61.0634 53.7525 60.6794 54.6052 65.8503 57.337C72.4115 60.8022 81.1102 70.6664 86.3206 80.5513C95.457 97.8821 105.854 104.439 119.318 101.36C135.84 97.5814 142.998 75.0671 131.9 61.7854C125.296 53.8813 117.074 51.5458 94.0398 51.0335C82.7438 50.7821 71.1555 51.175 68.2865 51.9069ZM126.427 85.6187C126.427 81.778 110.557 66.8162 102.017 62.6048C97.2517 60.2565 89.9543 57.9416 85.7977 57.4627L78.2412 56.5892L88.5467 60.2692C101.603 64.9309 113.899 72.8509 120.937 81.132C123.956 84.6848 126.427 86.7037 126.427 85.6187Z" fill="#F37334"/>
</svg>
