<svg width="199" height="199" viewBox="0 0 199 199" fill="none" xmlns="http://www.w3.org/2000/svg">
<circle cx="99.5" cy="99.5" r="94.5" stroke="#FFCAB3" stroke-width="10"/>
<path fill-rule="evenodd" clip-rule="evenodd" d="M94.5216 15.0338C93.1929 12.3546 92.1076 9.91396 92.1076 9.61008C92.1076 7.97612 97.348 9.6403 107.233 14.4101C126.222 23.5743 131.775 34.5888 122.247 44.1842C116.51 49.9611 109.777 50.3016 103.794 45.1197C100.269 42.0666 99.2754 39.4875 98.2201 30.6559C97.5123 24.7437 95.8487 17.7131 94.5216 15.0338ZM117.336 37.2203C117.4 33.5356 113.218 25.2146 108.906 20.448C107.053 18.3988 104.115 15.982 102.377 15.0784C100.411 14.0553 101.209 15.5445 104.487 19.0209C107.386 22.0947 111.453 28.0912 113.523 32.3471C115.592 36.6015 117.31 38.7954 117.336 37.2203ZM130.01 61.3941C133.478 58.0704 141.477 52.8233 147.784 49.7336C158.19 44.6344 163.201 42.9925 163.201 44.6837C163.201 45.0258 161.795 48.4258 160.076 52.241C158.043 56.7547 156.939 62.6764 156.917 69.1995C156.86 85.5073 152.011 91.7918 139.486 91.7918C129.858 91.7918 123.705 85.2289 123.705 74.9621C123.705 68.2513 124.39 66.778 130.01 61.3941ZM137.666 74.6885C139.557 69.4907 144.134 61.9334 148.27 57.1874C152.272 52.5926 155.264 48.8347 154.92 48.8347C154.574 48.8347 151.406 51.3214 147.881 54.3602C141.306 60.0274 135.98 69.5193 134.244 78.666C132.795 86.2964 133.922 84.9886 137.666 74.6885ZM116.687 147.477C128.527 147.477 145.335 138.43 164.609 121.684C171.221 115.94 179 113.641 179 117.432C179 120.657 168.151 134.163 157.215 144.553C144.407 156.721 123.239 171.344 118.438 171.339C116.556 171.339 106.84 169.124 96.8472 166.421C82.8433 162.631 76.2789 161.638 68.2058 162.089L57.7345 162.674L49.2475 150.365C44.5806 143.593 40.762 136.811 40.762 135.29C40.762 131.139 53.2145 122.396 63.3793 119.412C72.5662 116.713 84.3094 117.37 108.696 121.941C113.041 122.756 121.964 123.465 128.523 123.516C141.279 123.618 144.243 125.053 144.243 131.123C144.243 136.068 140.034 137.71 123.705 139.14C111.396 140.219 110.233 140.616 109.77 143.897C109.309 147.173 109.895 147.477 116.687 147.477ZM20.0437 146.785C19.6456 145.74 22.0122 142.949 25.3015 140.583C28.5908 138.217 32.1423 136.474 33.1929 136.709C35.8945 137.312 55.6586 166.613 54.8165 168.766C53.7485 171.503 43.1998 177.937 41.5093 176.885C39.7936 175.816 21.1401 149.658 20.0437 146.785Z" fill="#FFCAB3"/>
<path fill-rule="evenodd" clip-rule="evenodd" d="M40.2865 51.9069C33.0634 53.7525 32.6794 54.6052 37.8503 57.337C44.4115 60.8022 53.1102 70.6664 58.3206 80.5513C67.457 97.8821 77.854 104.439 91.3176 101.36C107.84 97.5814 114.998 75.0671 103.9 61.7854C97.2958 53.8813 89.0742 51.5458 66.0398 51.0335C54.7438 50.7821 43.1555 51.175 40.2865 51.9069ZM98.427 85.6187C98.427 81.778 82.5573 66.8162 74.0166 62.6048C69.2517 60.2565 61.9543 57.9416 57.7977 57.4627L50.2412 56.5892L60.5467 60.2692C73.6026 64.9309 85.8987 72.8509 92.937 81.132C95.9561 84.6848 98.427 86.7037 98.427 85.6187Z" fill="#FFCAB3"/>
</svg>
