<svg width="1221" height="248" viewBox="0 0 1221 248" fill="none" xmlns="http://www.w3.org/2000/svg">
<circle cx="99.5" cy="99.5" r="92" stroke="#F37334" stroke-width="15"/>
<path fill-rule="evenodd" clip-rule="evenodd" d="M95.774 31.5254C94.7796 29.5159 93.9673 27.6855 93.9673 27.4576C93.9673 26.2321 97.8894 27.4802 105.288 31.0576C119.499 37.9307 123.655 46.1916 116.524 53.3881C112.231 57.7208 107.191 57.9762 102.714 54.0898C100.076 51.7999 99.3319 49.8656 98.5421 43.2419C98.0123 38.8078 96.7673 33.5348 95.774 31.5254ZM112.849 48.1653C112.897 45.4017 109.767 39.161 106.54 35.586C105.153 34.0491 102.954 32.2365 101.653 31.5588C100.182 30.7915 100.779 31.9084 103.233 34.5156C105.402 36.821 108.446 41.3184 109.995 44.5103C111.544 47.7011 112.829 49.3466 112.849 48.1653ZM122.335 66.2955C124.93 63.8028 130.917 59.8675 135.637 57.5502C143.425 53.7258 147.176 52.4944 147.176 53.7628C147.176 54.0194 146.124 56.5693 144.837 59.4308C143.315 62.816 142.489 67.2573 142.472 72.1496C142.43 84.3805 138.801 89.0938 129.427 89.0938C122.221 89.0938 117.616 84.1717 117.616 76.4716C117.616 71.4385 118.129 70.3335 122.335 66.2955ZM128.065 76.2664C129.48 72.368 132.905 66.7001 136.001 63.1406C138.996 59.6945 141.235 56.876 140.978 56.876C140.719 56.876 138.348 58.7411 135.71 61.0202C130.789 65.2705 126.803 72.3895 125.503 79.2495C124.419 84.9723 125.262 83.9915 128.065 76.2664ZM112.363 130.858C121.224 130.858 133.804 124.073 148.229 111.513C153.178 107.205 159 105.481 159 108.324C159 110.743 150.88 120.873 142.696 128.664C133.11 137.79 117.267 148.758 113.673 148.754C112.265 148.754 104.993 147.093 97.5145 145.066C87.0336 142.223 82.1207 141.479 76.0786 141.816L68.2415 142.256L61.8896 133.023C58.3968 127.945 55.5389 122.858 55.5389 121.717C55.5389 118.604 64.8587 112.047 72.4663 109.809C79.342 107.785 88.1309 108.278 106.383 111.706C109.634 112.317 116.313 112.849 121.222 112.887C130.769 112.964 132.987 114.04 132.987 118.592C132.987 122.301 129.837 123.532 117.616 124.605C108.403 125.414 107.533 125.712 107.187 128.173C106.841 130.63 107.28 130.858 112.363 130.858ZM40.0327 130.339C39.7347 129.555 41.506 127.462 43.9678 125.687C46.4296 123.913 49.0876 122.605 49.8739 122.782C51.8959 123.234 66.6879 145.21 66.0576 146.825C65.2583 148.877 57.3633 153.702 56.0982 152.914C54.8141 152.112 40.8533 132.494 40.0327 130.339Z" fill="#F37334"/>
<path fill-rule="evenodd" clip-rule="evenodd" d="M55.183 59.1802C49.777 60.5644 49.4896 61.2039 53.3597 63.2528C58.2702 65.8517 64.7806 73.2498 68.6802 80.6635C75.5181 93.6616 83.2996 98.579 93.3761 96.27C105.742 93.4361 111.099 76.5504 102.793 66.5891C97.8503 60.661 91.6971 58.9093 74.4575 58.5251C66.0032 58.3366 57.3302 58.6313 55.183 59.1802ZM98.697 84.464C98.697 81.5835 86.8196 70.3621 80.4275 67.2036C76.8613 65.4424 71.3998 63.7062 68.2888 63.347L62.6334 62.6919L70.3462 65.4519C80.1177 68.9481 89.3204 74.8882 94.5881 81.099C96.8477 83.7636 98.697 85.2778 98.697 84.464Z" fill="#F37334"/>
<mask id="path-3-outside-1_3_123" maskUnits="userSpaceOnUse" x="292" y="53" width="889" height="76" fill="black">
<rect fill="white" x="292" y="53" width="889" height="76"/>
<path d="M345.934 76.2535V77.1945C345.934 80.8333 344.679 84.6602 342.169 88.6754C339.848 92.816 334.829 95.4196 327.113 96.4861L349.227 125.471H337.558L319.302 97.0507C318.11 97.1135 312.809 97.1448 303.398 97.1448V125.282H294.646V56.7737H319.208C322.031 56.7737 323.725 56.8051 324.289 56.8678C331.567 57.1815 337.59 59.9419 342.358 65.149C344.742 67.9095 345.934 71.6109 345.934 76.2535ZM303.398 89.9928H320.713C327.489 89.9928 332.257 88.1421 335.017 84.4406C336.084 82.9977 336.617 80.5509 336.617 77.1004C336.617 73.6499 336.053 71.0149 334.923 69.1956C332.853 65.6823 328.524 63.9257 321.937 63.9257H303.398V89.9928ZM404.768 103.826H370.984C371.486 109.033 372.96 112.704 375.407 114.837C377.916 117.032 381.273 118.13 385.476 118.13C392.942 118.13 398.902 116.154 403.356 112.202V121.236C398.212 124.498 392.22 126.129 385.382 126.129C378.544 126.129 373.023 123.745 368.82 118.977C364.554 114.147 362.42 108.061 362.42 100.721C362.42 93.4434 364.585 87.3579 368.914 82.4644C373.243 77.5709 378.795 75.1242 385.57 75.1242C389.272 75.1242 392.471 75.8457 395.169 77.2886C401.568 81.1156 404.768 89.9615 404.768 103.826ZM385.476 83.4996H385.288C376.881 83.4996 372.113 87.7971 370.984 96.392H397.428C397.114 91.9377 396.079 88.6754 394.322 86.6051C392.503 84.5347 389.554 83.4996 385.476 83.4996ZM450.811 115.213L457.398 115.778C455.767 122.679 450.999 126.129 443.094 126.129C435.19 126.129 428.885 123.683 424.179 118.789C419.411 114.021 417.027 107.653 417.027 99.6857C417.027 91.7181 419.537 85.6013 424.556 81.3352C429.575 77.1945 435.095 75.1242 441.118 75.1242C450.78 75.1242 456.206 79.0139 457.398 86.7933H450.905C449.964 83.7192 447.204 82.1821 442.624 82.1821C437.981 82.1821 434.029 83.8133 430.767 87.0756C427.442 90.3379 425.779 94.5099 425.779 99.5916C425.779 104.673 427.253 109.065 430.202 112.766C433.088 116.531 437.103 118.413 442.247 118.413C447.329 118.413 450.184 117.346 450.811 115.213ZM476.964 75.7829V101.285C476.964 112.766 480.289 118.507 486.939 118.507C496.098 118.507 500.678 112.39 500.678 100.156V75.7829H509.43V125.282H500.678V117.472C498.294 123.432 493.463 126.412 486.186 126.412C474.203 126.286 468.212 118.538 468.212 103.168V75.7829H476.964ZM547.174 74.3714C547.801 74.3714 549.182 74.4341 551.315 74.5596L551.221 82.9349C549.966 82.684 548.743 82.5585 547.551 82.5585C542.155 82.7467 538.234 84.0642 535.787 86.5109C533.341 88.9577 532.117 92.6278 532.117 97.5213V125.282H523.365V76.724H532.117V86.6992C533.309 82.7467 535.285 79.704 538.046 77.5709C540.869 75.4379 543.912 74.3714 547.174 74.3714ZM598.733 86.2286L592.428 88.0166C591.549 85.2562 589.793 83.5623 587.158 82.9349C585.025 82.3703 582.704 82.088 580.194 82.088C577.747 82.088 576.116 82.1194 575.301 82.1821C573.042 82.3703 571.348 82.9977 570.219 84.0642C569.09 85.068 568.525 86.6992 568.525 88.9577C568.525 91.1535 569.592 92.7846 571.725 93.8512C573.858 94.9177 576.43 95.6392 579.441 96.0156C582.515 96.4547 585.589 97.0194 588.664 97.7095C591.675 98.3996 594.247 99.8425 596.38 102.038C598.513 104.171 599.58 107.245 599.58 111.261C599.58 115.213 597.949 118.569 594.686 121.33C591.361 124.09 586.436 125.471 579.912 125.471C567.427 125.471 560.401 121.142 558.832 112.484L566.078 111.072C567.019 115.339 571.63 117.472 579.912 117.472C583.927 117.472 586.844 116.844 588.664 115.589C590.483 114.335 591.393 112.202 591.393 109.19C591.393 107.12 590.295 105.614 588.099 104.673C585.966 103.732 583.362 103.073 580.288 102.697C577.214 102.321 574.171 101.819 571.16 101.191C568.086 100.564 565.451 99.2152 563.255 97.1448C561.122 95.0745 560.056 92.22 560.056 88.5813C560.056 79.1707 566.455 74.4655 579.253 74.4655C584.586 74.4655 588.852 75.3124 592.051 77.0063C595.251 78.6375 597.478 81.7116 598.733 86.2286ZM648.559 81.4293C653.138 86.3855 655.428 92.5964 655.428 100.062C655.428 107.528 653.107 113.864 648.464 119.071C643.885 124.279 638.238 126.882 631.526 126.882C624.813 126.882 619.26 124.279 614.869 119.071C610.477 113.864 608.282 107.528 608.282 100.062C608.282 92.5964 610.477 86.3855 614.869 81.4293C619.26 76.473 624.844 73.9949 631.62 73.9949C638.332 73.9949 643.979 76.473 648.559 81.4293ZM620.798 86.6051C618.225 90.3065 616.939 94.7608 616.939 99.968C616.939 105.112 618.194 109.692 620.703 113.707C623.276 117.785 626.789 119.824 631.243 119.824C635.698 119.824 639.274 117.817 641.971 113.801C644.606 109.724 645.924 105.081 645.924 99.8739C645.924 94.6667 644.606 90.2438 641.971 86.6051C639.336 82.9036 635.792 81.0528 631.337 81.0528C626.883 81.0528 623.37 82.9036 620.798 86.6051ZM702.296 86.2286L695.991 88.0166C695.113 85.2562 693.356 83.5623 690.721 82.9349C688.588 82.3703 686.267 82.088 683.758 82.088C681.311 82.088 679.68 82.1194 678.864 82.1821C676.606 82.3703 674.912 82.9977 673.782 84.0642C672.653 85.068 672.089 86.6992 672.089 88.9577C672.089 91.1535 673.155 92.7846 675.288 93.8512C677.421 94.9177 679.993 95.6392 683.005 96.0156C686.079 96.4547 689.153 97.0194 692.227 97.7095C695.238 98.3996 697.811 99.8425 699.944 102.038C702.077 104.171 703.143 107.245 703.143 111.261C703.143 115.213 701.512 118.569 698.25 121.33C694.925 124.09 690 125.471 683.475 125.471C670.991 125.471 663.964 121.142 662.396 112.484L669.642 111.072C670.583 115.339 675.194 117.472 683.475 117.472C687.49 117.472 690.408 116.844 692.227 115.589C694.046 114.335 694.956 112.202 694.956 109.19C694.956 107.12 693.858 105.614 691.662 104.673C689.529 103.732 686.926 103.073 683.852 102.697C680.778 102.321 677.735 101.819 674.724 101.191C671.649 100.564 669.014 99.2152 666.819 97.1448C664.686 95.0745 663.619 92.22 663.619 88.5813C663.619 79.1707 670.018 74.4655 682.817 74.4655C688.149 74.4655 692.415 75.3124 695.615 77.0063C698.814 78.6375 701.042 81.7116 702.296 86.2286ZM799.815 56.7737H808.755V125H800.097L756.244 70.8895V125.282H747.587V56.7737H755.586L799.815 111.261V56.7737ZM852.94 90.3693C852.94 84.1583 849.49 81.0528 842.589 81.0528C835.688 81.0528 830.355 82.8095 826.591 86.3227L821.886 81.8057C826.842 76.8495 833.555 74.3714 842.024 74.3714H842.495C854.854 74.3714 861.034 81.0842 861.034 94.5099V115.778C861.034 118.287 861.975 121.424 863.857 125.188L856.987 125C854.415 123.494 853.003 120.922 852.752 117.283C849.741 122.491 845.475 125.408 839.954 126.035C833.868 126.035 829.257 124.655 826.12 121.895C822.984 119.134 821.415 115.809 821.415 111.919V111.637C821.415 107.622 822.356 104.046 824.238 100.909C827.94 95.0745 837.444 92.0004 852.752 91.6867L852.94 90.3693ZM831.484 115.778C832.363 117.158 834.715 117.848 838.542 117.848C842.307 117.848 845.224 117.127 847.294 115.684C849.427 114.303 851.027 111.825 852.094 108.249C852.533 106.995 852.752 106.022 852.752 105.332V97.8977C845.412 98.1486 839.797 99.4661 835.907 101.85C832.018 104.171 830.073 107.151 830.073 110.79C830.073 112.798 830.543 114.46 831.484 115.778ZM902.674 116.342L903.238 119.73C901.795 123.683 897.968 125.659 891.757 125.659C883.1 125.659 878.771 121.236 878.771 112.39V83.5937H871.901V76.724H878.771V62.1377H887.335V76.724H901.356V83.5937H887.335V111.072C887.335 116.217 889.938 118.789 895.145 118.789C898.533 118.789 901.043 117.973 902.674 116.342ZM921.357 75.7829V101.285C921.357 112.766 924.682 118.507 931.332 118.507C940.492 118.507 945.072 112.39 945.072 100.156V75.7829H953.824V125.282H945.072V117.472C942.688 123.432 937.857 126.412 930.58 126.412C918.597 126.286 912.605 118.538 912.605 103.168V75.7829H921.357ZM991.568 74.3714C992.195 74.3714 993.575 74.4341 995.708 74.5596L995.614 82.9349C994.36 82.684 993.136 82.5585 991.944 82.5585C986.549 82.7467 982.628 84.0642 980.181 86.5109C977.734 88.9577 976.511 92.6278 976.511 97.5213V125.282H967.759V76.724H976.511V86.6992C977.703 82.7467 979.679 79.704 982.44 77.5709C985.263 75.4379 988.306 74.3714 991.568 74.3714ZM1036.63 90.3693C1036.63 84.1583 1033.18 81.0528 1026.28 81.0528C1019.38 81.0528 1014.05 82.8095 1010.28 86.3227L1005.58 81.8057C1010.53 76.8495 1017.25 74.3714 1025.72 74.3714H1026.19C1038.55 74.3714 1044.73 81.0842 1044.73 94.5099V115.778C1044.73 118.287 1045.67 121.424 1047.55 125.188L1040.68 125C1038.11 123.494 1036.7 120.922 1036.45 117.283C1033.43 122.491 1029.17 125.408 1023.65 126.035C1017.56 126.035 1012.95 124.655 1009.81 121.895C1006.68 119.134 1005.11 115.809 1005.11 111.919V111.637C1005.11 107.622 1006.05 104.046 1007.93 100.909C1011.63 95.0745 1021.14 92.0004 1036.45 91.6867L1036.63 90.3693ZM1015.18 115.778C1016.06 117.158 1018.41 117.848 1022.24 117.848C1026 117.848 1028.92 117.127 1030.99 115.684C1033.12 114.303 1034.72 111.825 1035.79 108.249C1036.23 106.995 1036.45 106.022 1036.45 105.332V97.8977C1029.1 98.1486 1023.49 99.4661 1019.6 101.85C1015.71 104.171 1013.77 107.151 1013.77 110.79C1013.77 112.798 1014.24 114.46 1015.18 115.778ZM1071.22 125.282H1062.56V55.3621H1071.22V125.282ZM1128.97 103.826H1095.19C1095.69 109.033 1097.17 112.704 1099.61 114.837C1102.12 117.032 1105.48 118.13 1109.68 118.13C1117.15 118.13 1123.11 116.154 1127.56 112.202V121.236C1122.42 124.498 1116.43 126.129 1109.59 126.129C1102.75 126.129 1097.23 123.745 1093.03 118.977C1088.76 114.147 1086.63 108.061 1086.63 100.721C1086.63 93.4434 1088.79 87.3579 1093.12 82.4644C1097.45 77.5709 1103 75.1242 1109.78 75.1242C1113.48 75.1242 1116.68 75.8457 1119.38 77.2886C1125.77 81.1156 1128.97 89.9615 1128.97 103.826ZM1109.68 83.4996H1109.49C1101.09 83.4996 1096.32 87.7971 1095.19 96.392H1121.63C1121.32 91.9377 1120.28 88.6754 1118.53 86.6051C1116.71 84.5347 1113.76 83.4996 1109.68 83.4996ZM1177.84 86.2286L1171.54 88.0166C1170.66 85.2562 1168.9 83.5623 1166.27 82.9349C1164.13 82.3703 1161.81 82.088 1159.3 82.088C1156.85 82.088 1155.22 82.1194 1154.41 82.1821C1152.15 82.3703 1150.46 82.9977 1149.33 84.0642C1148.2 85.068 1147.63 86.6992 1147.63 88.9577C1147.63 91.1535 1148.7 92.7846 1150.83 93.8512C1152.97 94.9177 1155.54 95.6392 1158.55 96.0156C1161.62 96.4547 1164.7 97.0194 1167.77 97.7095C1170.78 98.3996 1173.35 99.8425 1175.49 102.038C1177.62 104.171 1178.69 107.245 1178.69 111.261C1178.69 115.213 1177.06 118.569 1173.79 121.33C1170.47 124.09 1165.54 125.471 1159.02 125.471C1146.53 125.471 1139.51 121.142 1137.94 112.484L1145.19 111.072C1146.13 115.339 1150.74 117.472 1159.02 117.472C1163.03 117.472 1165.95 116.844 1167.77 115.589C1169.59 114.335 1170.5 112.202 1170.5 109.19C1170.5 107.12 1169.4 105.614 1167.21 104.673C1165.07 103.732 1162.47 103.073 1159.4 102.697C1156.32 102.321 1153.28 101.819 1150.27 101.191C1147.19 100.564 1144.56 99.2152 1142.36 97.1448C1140.23 95.0745 1139.16 92.22 1139.16 88.5813C1139.16 79.1707 1145.56 74.4655 1158.36 74.4655C1163.69 74.4655 1167.96 75.3124 1171.16 77.0063C1174.36 78.6375 1176.59 81.7116 1177.84 86.2286Z"/>
</mask>
<path d="M345.934 76.2535V77.1945C345.934 80.8333 344.679 84.6602 342.169 88.6754C339.848 92.816 334.829 95.4196 327.113 96.4861L349.227 125.471H337.558L319.302 97.0507C318.11 97.1135 312.809 97.1448 303.398 97.1448V125.282H294.646V56.7737H319.208C322.031 56.7737 323.725 56.8051 324.289 56.8678C331.567 57.1815 337.59 59.9419 342.358 65.149C344.742 67.9095 345.934 71.6109 345.934 76.2535ZM303.398 89.9928H320.713C327.489 89.9928 332.257 88.1421 335.017 84.4406C336.084 82.9977 336.617 80.5509 336.617 77.1004C336.617 73.6499 336.053 71.0149 334.923 69.1956C332.853 65.6823 328.524 63.9257 321.937 63.9257H303.398V89.9928ZM404.768 103.826H370.984C371.486 109.033 372.96 112.704 375.407 114.837C377.916 117.032 381.273 118.13 385.476 118.13C392.942 118.13 398.902 116.154 403.356 112.202V121.236C398.212 124.498 392.22 126.129 385.382 126.129C378.544 126.129 373.023 123.745 368.82 118.977C364.554 114.147 362.42 108.061 362.42 100.721C362.42 93.4434 364.585 87.3579 368.914 82.4644C373.243 77.5709 378.795 75.1242 385.57 75.1242C389.272 75.1242 392.471 75.8457 395.169 77.2886C401.568 81.1156 404.768 89.9615 404.768 103.826ZM385.476 83.4996H385.288C376.881 83.4996 372.113 87.7971 370.984 96.392H397.428C397.114 91.9377 396.079 88.6754 394.322 86.6051C392.503 84.5347 389.554 83.4996 385.476 83.4996ZM450.811 115.213L457.398 115.778C455.767 122.679 450.999 126.129 443.094 126.129C435.19 126.129 428.885 123.683 424.179 118.789C419.411 114.021 417.027 107.653 417.027 99.6857C417.027 91.7181 419.537 85.6013 424.556 81.3352C429.575 77.1945 435.095 75.1242 441.118 75.1242C450.78 75.1242 456.206 79.0139 457.398 86.7933H450.905C449.964 83.7192 447.204 82.1821 442.624 82.1821C437.981 82.1821 434.029 83.8133 430.767 87.0756C427.442 90.3379 425.779 94.5099 425.779 99.5916C425.779 104.673 427.253 109.065 430.202 112.766C433.088 116.531 437.103 118.413 442.247 118.413C447.329 118.413 450.184 117.346 450.811 115.213ZM476.964 75.7829V101.285C476.964 112.766 480.289 118.507 486.939 118.507C496.098 118.507 500.678 112.39 500.678 100.156V75.7829H509.43V125.282H500.678V117.472C498.294 123.432 493.463 126.412 486.186 126.412C474.203 126.286 468.212 118.538 468.212 103.168V75.7829H476.964ZM547.174 74.3714C547.801 74.3714 549.182 74.4341 551.315 74.5596L551.221 82.9349C549.966 82.684 548.743 82.5585 547.551 82.5585C542.155 82.7467 538.234 84.0642 535.787 86.5109C533.341 88.9577 532.117 92.6278 532.117 97.5213V125.282H523.365V76.724H532.117V86.6992C533.309 82.7467 535.285 79.704 538.046 77.5709C540.869 75.4379 543.912 74.3714 547.174 74.3714ZM598.733 86.2286L592.428 88.0166C591.549 85.2562 589.793 83.5623 587.158 82.9349C585.025 82.3703 582.704 82.088 580.194 82.088C577.747 82.088 576.116 82.1194 575.301 82.1821C573.042 82.3703 571.348 82.9977 570.219 84.0642C569.09 85.068 568.525 86.6992 568.525 88.9577C568.525 91.1535 569.592 92.7846 571.725 93.8512C573.858 94.9177 576.43 95.6392 579.441 96.0156C582.515 96.4547 585.589 97.0194 588.664 97.7095C591.675 98.3996 594.247 99.8425 596.38 102.038C598.513 104.171 599.58 107.245 599.58 111.261C599.58 115.213 597.949 118.569 594.686 121.33C591.361 124.09 586.436 125.471 579.912 125.471C567.427 125.471 560.401 121.142 558.832 112.484L566.078 111.072C567.019 115.339 571.63 117.472 579.912 117.472C583.927 117.472 586.844 116.844 588.664 115.589C590.483 114.335 591.393 112.202 591.393 109.19C591.393 107.12 590.295 105.614 588.099 104.673C585.966 103.732 583.362 103.073 580.288 102.697C577.214 102.321 574.171 101.819 571.16 101.191C568.086 100.564 565.451 99.2152 563.255 97.1448C561.122 95.0745 560.056 92.22 560.056 88.5813C560.056 79.1707 566.455 74.4655 579.253 74.4655C584.586 74.4655 588.852 75.3124 592.051 77.0063C595.251 78.6375 597.478 81.7116 598.733 86.2286ZM648.559 81.4293C653.138 86.3855 655.428 92.5964 655.428 100.062C655.428 107.528 653.107 113.864 648.464 119.071C643.885 124.279 638.238 126.882 631.526 126.882C624.813 126.882 619.26 124.279 614.869 119.071C610.477 113.864 608.282 107.528 608.282 100.062C608.282 92.5964 610.477 86.3855 614.869 81.4293C619.26 76.473 624.844 73.9949 631.62 73.9949C638.332 73.9949 643.979 76.473 648.559 81.4293ZM620.798 86.6051C618.225 90.3065 616.939 94.7608 616.939 99.968C616.939 105.112 618.194 109.692 620.703 113.707C623.276 117.785 626.789 119.824 631.243 119.824C635.698 119.824 639.274 117.817 641.971 113.801C644.606 109.724 645.924 105.081 645.924 99.8739C645.924 94.6667 644.606 90.2438 641.971 86.6051C639.336 82.9036 635.792 81.0528 631.337 81.0528C626.883 81.0528 623.37 82.9036 620.798 86.6051ZM702.296 86.2286L695.991 88.0166C695.113 85.2562 693.356 83.5623 690.721 82.9349C688.588 82.3703 686.267 82.088 683.758 82.088C681.311 82.088 679.68 82.1194 678.864 82.1821C676.606 82.3703 674.912 82.9977 673.782 84.0642C672.653 85.068 672.089 86.6992 672.089 88.9577C672.089 91.1535 673.155 92.7846 675.288 93.8512C677.421 94.9177 679.993 95.6392 683.005 96.0156C686.079 96.4547 689.153 97.0194 692.227 97.7095C695.238 98.3996 697.811 99.8425 699.944 102.038C702.077 104.171 703.143 107.245 703.143 111.261C703.143 115.213 701.512 118.569 698.25 121.33C694.925 124.09 690 125.471 683.475 125.471C670.991 125.471 663.964 121.142 662.396 112.484L669.642 111.072C670.583 115.339 675.194 117.472 683.475 117.472C687.49 117.472 690.408 116.844 692.227 115.589C694.046 114.335 694.956 112.202 694.956 109.19C694.956 107.12 693.858 105.614 691.662 104.673C689.529 103.732 686.926 103.073 683.852 102.697C680.778 102.321 677.735 101.819 674.724 101.191C671.649 100.564 669.014 99.2152 666.819 97.1448C664.686 95.0745 663.619 92.22 663.619 88.5813C663.619 79.1707 670.018 74.4655 682.817 74.4655C688.149 74.4655 692.415 75.3124 695.615 77.0063C698.814 78.6375 701.042 81.7116 702.296 86.2286ZM799.815 56.7737H808.755V125H800.097L756.244 70.8895V125.282H747.587V56.7737H755.586L799.815 111.261V56.7737ZM852.94 90.3693C852.94 84.1583 849.49 81.0528 842.589 81.0528C835.688 81.0528 830.355 82.8095 826.591 86.3227L821.886 81.8057C826.842 76.8495 833.555 74.3714 842.024 74.3714H842.495C854.854 74.3714 861.034 81.0842 861.034 94.5099V115.778C861.034 118.287 861.975 121.424 863.857 125.188L856.987 125C854.415 123.494 853.003 120.922 852.752 117.283C849.741 122.491 845.475 125.408 839.954 126.035C833.868 126.035 829.257 124.655 826.12 121.895C822.984 119.134 821.415 115.809 821.415 111.919V111.637C821.415 107.622 822.356 104.046 824.238 100.909C827.94 95.0745 837.444 92.0004 852.752 91.6867L852.94 90.3693ZM831.484 115.778C832.363 117.158 834.715 117.848 838.542 117.848C842.307 117.848 845.224 117.127 847.294 115.684C849.427 114.303 851.027 111.825 852.094 108.249C852.533 106.995 852.752 106.022 852.752 105.332V97.8977C845.412 98.1486 839.797 99.4661 835.907 101.85C832.018 104.171 830.073 107.151 830.073 110.79C830.073 112.798 830.543 114.46 831.484 115.778ZM902.674 116.342L903.238 119.73C901.795 123.683 897.968 125.659 891.757 125.659C883.1 125.659 878.771 121.236 878.771 112.39V83.5937H871.901V76.724H878.771V62.1377H887.335V76.724H901.356V83.5937H887.335V111.072C887.335 116.217 889.938 118.789 895.145 118.789C898.533 118.789 901.043 117.973 902.674 116.342ZM921.357 75.7829V101.285C921.357 112.766 924.682 118.507 931.332 118.507C940.492 118.507 945.072 112.39 945.072 100.156V75.7829H953.824V125.282H945.072V117.472C942.688 123.432 937.857 126.412 930.58 126.412C918.597 126.286 912.605 118.538 912.605 103.168V75.7829H921.357ZM991.568 74.3714C992.195 74.3714 993.575 74.4341 995.708 74.5596L995.614 82.9349C994.36 82.684 993.136 82.5585 991.944 82.5585C986.549 82.7467 982.628 84.0642 980.181 86.5109C977.734 88.9577 976.511 92.6278 976.511 97.5213V125.282H967.759V76.724H976.511V86.6992C977.703 82.7467 979.679 79.704 982.44 77.5709C985.263 75.4379 988.306 74.3714 991.568 74.3714ZM1036.63 90.3693C1036.63 84.1583 1033.18 81.0528 1026.28 81.0528C1019.38 81.0528 1014.05 82.8095 1010.28 86.3227L1005.58 81.8057C1010.53 76.8495 1017.25 74.3714 1025.72 74.3714H1026.19C1038.55 74.3714 1044.73 81.0842 1044.73 94.5099V115.778C1044.73 118.287 1045.67 121.424 1047.55 125.188L1040.68 125C1038.11 123.494 1036.7 120.922 1036.45 117.283C1033.43 122.491 1029.17 125.408 1023.65 126.035C1017.56 126.035 1012.95 124.655 1009.81 121.895C1006.68 119.134 1005.11 115.809 1005.11 111.919V111.637C1005.11 107.622 1006.05 104.046 1007.93 100.909C1011.63 95.0745 1021.14 92.0004 1036.45 91.6867L1036.63 90.3693ZM1015.18 115.778C1016.06 117.158 1018.41 117.848 1022.24 117.848C1026 117.848 1028.92 117.127 1030.99 115.684C1033.12 114.303 1034.72 111.825 1035.79 108.249C1036.23 106.995 1036.45 106.022 1036.45 105.332V97.8977C1029.1 98.1486 1023.49 99.4661 1019.6 101.85C1015.71 104.171 1013.77 107.151 1013.77 110.79C1013.77 112.798 1014.24 114.46 1015.18 115.778ZM1071.22 125.282H1062.56V55.3621H1071.22V125.282ZM1128.97 103.826H1095.19C1095.69 109.033 1097.17 112.704 1099.61 114.837C1102.12 117.032 1105.48 118.13 1109.68 118.13C1117.15 118.13 1123.11 116.154 1127.56 112.202V121.236C1122.42 124.498 1116.43 126.129 1109.59 126.129C1102.75 126.129 1097.23 123.745 1093.03 118.977C1088.76 114.147 1086.63 108.061 1086.63 100.721C1086.63 93.4434 1088.79 87.3579 1093.12 82.4644C1097.45 77.5709 1103 75.1242 1109.78 75.1242C1113.48 75.1242 1116.68 75.8457 1119.38 77.2886C1125.77 81.1156 1128.97 89.9615 1128.97 103.826ZM1109.68 83.4996H1109.49C1101.09 83.4996 1096.32 87.7971 1095.19 96.392H1121.63C1121.32 91.9377 1120.28 88.6754 1118.53 86.6051C1116.71 84.5347 1113.76 83.4996 1109.68 83.4996ZM1177.84 86.2286L1171.54 88.0166C1170.66 85.2562 1168.9 83.5623 1166.27 82.9349C1164.13 82.3703 1161.81 82.088 1159.3 82.088C1156.85 82.088 1155.22 82.1194 1154.41 82.1821C1152.15 82.3703 1150.46 82.9977 1149.33 84.0642C1148.2 85.068 1147.63 86.6992 1147.63 88.9577C1147.63 91.1535 1148.7 92.7846 1150.83 93.8512C1152.97 94.9177 1155.54 95.6392 1158.55 96.0156C1161.62 96.4547 1164.7 97.0194 1167.77 97.7095C1170.78 98.3996 1173.35 99.8425 1175.49 102.038C1177.62 104.171 1178.69 107.245 1178.69 111.261C1178.69 115.213 1177.06 118.569 1173.79 121.33C1170.47 124.09 1165.54 125.471 1159.02 125.471C1146.53 125.471 1139.51 121.142 1137.94 112.484L1145.19 111.072C1146.13 115.339 1150.74 117.472 1159.02 117.472C1163.03 117.472 1165.95 116.844 1167.77 115.589C1169.59 114.335 1170.5 112.202 1170.5 109.19C1170.5 107.12 1169.4 105.614 1167.21 104.673C1165.07 103.732 1162.47 103.073 1159.4 102.697C1156.32 102.321 1153.28 101.819 1150.27 101.191C1147.19 100.564 1144.56 99.2152 1142.36 97.1448C1140.23 95.0745 1139.16 92.22 1139.16 88.5813C1139.16 79.1707 1145.56 74.4655 1158.36 74.4655C1163.69 74.4655 1167.96 75.3124 1171.16 77.0063C1174.36 78.6375 1176.59 81.7116 1177.84 86.2286Z" fill="#F37334"/>
<path d="M342.169 88.6754L340.573 87.6779L340.55 87.7159L340.528 87.755L342.169 88.6754ZM327.113 96.4861L326.855 94.6217L323.66 95.0633L325.616 97.6278L327.113 96.4861ZM349.227 125.471V127.353H353.031L350.724 124.329L349.227 125.471ZM337.558 125.471L335.975 126.488L336.53 127.353H337.558V125.471ZM319.302 97.0507L320.885 96.0335L320.295 95.1138L319.203 95.1712L319.302 97.0507ZM303.398 97.1448V95.2627H301.516V97.1448H303.398ZM303.398 125.282V127.164H305.28V125.282H303.398ZM294.646 125.282H292.764V127.164H294.646V125.282ZM294.646 56.7737V54.8916H292.764V56.7737H294.646ZM324.289 56.8678L324.082 58.7384L324.145 58.7454L324.208 58.7481L324.289 56.8678ZM342.358 65.149L343.782 63.9189L343.764 63.8982L343.746 63.878L342.358 65.149ZM303.398 89.9928H301.516V91.8749H303.398V89.9928ZM335.017 84.4406L336.526 85.5658L336.531 85.5593L335.017 84.4406ZM334.923 69.1956L333.302 70.1511L333.313 70.1697L333.324 70.1881L334.923 69.1956ZM303.398 63.9257V62.0436H301.516V63.9257H303.398ZM345.934 76.2535H344.052V77.1945H345.934H347.816V76.2535H345.934ZM345.934 77.1945H344.052C344.052 80.389 342.951 83.8733 340.573 87.6779L342.169 88.6754L343.765 89.6729C346.407 85.4471 347.816 81.2775 347.816 77.1945H345.934ZM342.169 88.6754L340.528 87.755C338.639 91.1243 334.361 93.5844 326.855 94.6217L327.113 96.4861L327.37 98.3505C335.298 97.2548 341.058 94.5077 343.811 89.5957L342.169 88.6754ZM327.113 96.4861L325.616 97.6278L347.731 126.612L349.227 125.471L350.724 124.329L328.609 95.3444L327.113 96.4861ZM349.227 125.471V123.588H337.558V125.471V127.353H349.227V125.471ZM337.558 125.471L339.142 124.453L320.885 96.0335L319.302 97.0507L317.718 98.068L335.975 126.488L337.558 125.471ZM319.302 97.0507L319.203 95.1712C318.075 95.2306 312.847 95.2627 303.398 95.2627V97.1448V99.0269C312.771 99.0269 318.145 98.9964 319.401 98.9302L319.302 97.0507ZM303.398 97.1448H301.516V125.282H303.398H305.28V97.1448H303.398ZM303.398 125.282V123.4H294.646V125.282V127.164H303.398V125.282ZM294.646 125.282H296.528V56.7737H294.646H292.764V125.282H294.646ZM294.646 56.7737V58.6558H319.208V56.7737V54.8916H294.646V56.7737ZM319.208 56.7737V58.6558C322.085 58.6558 323.647 58.6901 324.082 58.7384L324.289 56.8678L324.497 54.9972C323.802 54.92 321.977 54.8916 319.208 54.8916V56.7737ZM324.289 56.8678L324.208 58.7481C331.004 59.0411 336.551 61.5944 340.97 66.4201L342.358 65.149L343.746 63.878C338.628 58.2894 332.13 55.3219 324.371 54.9874L324.289 56.8678ZM342.358 65.149L340.933 66.3792C342.949 68.7128 344.052 71.936 344.052 76.2535H345.934H347.816C347.816 71.2859 346.535 67.1061 343.782 63.9189L342.358 65.149ZM303.398 89.9928V91.8749H320.713V89.9928V88.1107H303.398V89.9928ZM320.713 89.9928V91.8749C327.793 91.8749 333.267 89.9364 336.526 85.5658L335.017 84.4406L333.509 83.3155C331.247 86.3478 327.186 88.1107 320.713 88.1107V89.9928ZM335.017 84.4406L336.531 85.5593C337.974 83.6073 338.499 80.6372 338.499 77.1004H336.617H334.735C334.735 80.4647 334.194 82.3881 333.504 83.3219L335.017 84.4406ZM336.617 77.1004H338.499C338.499 73.4933 337.918 70.4508 336.522 68.203L334.923 69.1956L333.324 70.1881C334.188 71.5791 334.735 73.8065 334.735 77.1004H336.617ZM334.923 69.1956L336.545 68.24C333.964 63.8597 328.76 62.0436 321.937 62.0436V63.9257V65.8078C328.288 65.8078 331.743 67.5049 333.302 70.1511L334.923 69.1956ZM321.937 63.9257V62.0436H303.398V63.9257V65.8078H321.937V63.9257ZM303.398 63.9257H301.516V89.9928H303.398H305.28V63.9257H303.398ZM404.768 103.826V105.708H406.65V103.826H404.768ZM370.984 103.826V101.944H368.912L369.111 104.007L370.984 103.826ZM375.407 114.837L376.646 113.42L376.644 113.418L375.407 114.837ZM403.356 112.202H405.238V108.015L402.107 110.794L403.356 112.202ZM403.356 121.236L404.364 122.825L405.238 122.271V121.236H403.356ZM368.82 118.977L370.231 117.733L370.23 117.731L368.82 118.977ZM368.914 82.4644L370.323 83.7115V83.7115L368.914 82.4644ZM395.169 77.2886L396.135 75.6733L396.097 75.6502L396.057 75.629L395.169 77.2886ZM370.984 96.392L369.118 96.1468L368.839 98.2741H370.984V96.392ZM397.428 96.392V98.2741H399.447L399.305 96.2598L397.428 96.392ZM394.322 86.605L395.757 85.3874L395.747 85.3749L395.736 85.3626L394.322 86.605ZM404.768 103.826V101.944H370.984V103.826V105.708H404.768V103.826ZM370.984 103.826L369.111 104.007C369.632 109.414 371.194 113.661 374.17 116.255L375.407 114.837L376.644 113.418C374.727 111.747 373.34 108.653 372.857 103.646L370.984 103.826ZM375.407 114.837L374.168 116.253C377.102 118.821 380.94 120.012 385.476 120.012V118.13V116.248C381.606 116.248 378.731 115.244 376.646 113.42L375.407 114.837ZM385.476 118.13V120.012C393.281 120.012 399.726 117.939 404.605 113.609L403.356 112.202L402.107 110.794C398.078 114.369 392.603 116.248 385.476 116.248V118.13ZM403.356 112.202H401.474V121.236H403.356H405.238V112.202H403.356ZM403.356 121.236L402.348 119.646C397.541 122.695 391.909 124.247 385.382 124.247V126.129V128.011C392.532 128.011 398.882 126.301 404.364 122.825L403.356 121.236ZM385.382 126.129V124.247C379.038 124.247 374.048 122.062 370.231 117.733L368.82 118.977L367.408 120.222C371.998 125.429 378.05 128.011 385.382 128.011V126.129ZM368.82 118.977L370.23 117.731C366.31 113.292 364.303 107.67 364.303 100.721H362.42H360.538C360.538 108.452 362.797 115.001 367.409 120.223L368.82 118.977ZM362.42 100.721H364.303C364.303 93.8465 366.334 88.2209 370.323 83.7115L368.914 82.4644L367.504 81.2174C362.836 86.4949 360.538 93.0402 360.538 100.721H362.42ZM368.914 82.4644L370.323 83.7115C374.28 79.2386 379.311 77.0063 385.57 77.0063V75.1242V73.2421C378.278 73.2421 372.205 75.9033 367.504 81.2174L368.914 82.4644ZM385.57 75.1242V77.0063C389.027 77.0063 391.909 77.679 394.281 78.9482L395.169 77.2886L396.057 75.629C393.034 74.0123 389.517 73.2421 385.57 73.2421V75.1242ZM395.169 77.2886L394.203 78.9039C399.68 82.1793 402.886 90.0664 402.886 103.826H404.768H406.65C406.65 89.8565 403.457 80.0518 396.135 75.6733L395.169 77.2886ZM385.476 83.4996V81.6175H385.288V83.4996V85.3817H385.476V83.4996ZM385.288 83.4996V81.6175C380.767 81.6175 376.973 82.7779 374.147 85.3246C371.329 87.8643 369.72 91.5617 369.118 96.1468L370.984 96.392L372.85 96.6372C373.377 92.6274 374.717 89.8785 376.667 88.1207C378.61 86.37 381.403 85.3817 385.288 85.3817V83.4996ZM370.984 96.392V98.2741H397.428V96.392V94.5099H370.984V96.392ZM397.428 96.392L399.305 96.2598C398.98 91.641 397.893 87.904 395.757 85.3874L394.322 86.605L392.887 87.8227C394.265 89.4467 395.248 92.2343 395.55 96.5242L397.428 96.392ZM394.322 86.605L395.736 85.3626C393.416 82.7227 389.832 81.6175 385.476 81.6175V83.4996V85.3817C389.276 85.3817 391.59 86.3467 392.908 87.8475L394.322 86.605ZM450.811 115.213L450.972 113.338L449.439 113.206L449.005 114.682L450.811 115.213ZM457.398 115.778L459.23 116.211L459.732 114.089L457.559 113.902L457.398 115.778ZM424.179 118.789L425.536 117.485L425.523 117.471L425.51 117.458L424.179 118.789ZM424.556 81.3352L423.358 79.8834L423.347 79.8922L423.337 79.9011L424.556 81.3352ZM457.398 86.7933V88.6754H459.591L459.259 86.5082L457.398 86.7933ZM450.905 86.7933L449.105 87.3442L449.513 88.6754H450.905V86.7933ZM430.767 87.0756L432.085 88.419L432.091 88.4128L432.097 88.4064L430.767 87.0756ZM430.202 112.766L431.696 111.621L431.685 111.607L431.674 111.594L430.202 112.766ZM450.811 115.213L450.65 117.088L457.238 117.653L457.398 115.778L457.559 113.902L450.972 113.338L450.811 115.213ZM457.398 115.778L455.567 115.345C454.833 118.45 453.442 120.608 451.496 122.017C449.526 123.442 446.785 124.247 443.094 124.247V126.129V128.011C447.309 128.011 450.904 127.092 453.702 125.066C456.524 123.024 458.333 120.006 459.23 116.211L457.398 115.778ZM443.094 126.129V124.247C435.61 124.247 429.828 121.948 425.536 117.485L424.179 118.789L422.823 120.094C427.941 125.417 434.769 128.011 443.094 128.011V126.129ZM424.179 118.789L425.51 117.458C421.159 113.107 418.909 107.252 418.909 99.6857H417.027H415.145C415.145 108.055 417.664 114.936 422.848 120.12L424.179 118.789ZM417.027 99.6857H418.909C418.909 92.1434 421.264 86.603 425.775 82.7692L424.556 81.3352L423.337 79.9011C417.809 84.5996 415.145 91.2929 415.145 99.6857H417.027ZM424.556 81.3352L425.753 82.787C430.464 78.9005 435.569 77.0063 441.118 77.0063V75.1242V73.2421C434.622 73.2421 428.685 75.4885 423.358 79.8834L424.556 81.3352ZM441.118 75.1242V77.0063C445.724 77.0063 449.058 77.9373 451.338 79.5712C453.566 81.1684 455.004 83.5927 455.538 87.0783L457.398 86.7933L459.259 86.5082C458.601 82.2144 456.729 78.8042 453.531 76.5117C450.384 74.256 446.174 73.2421 441.118 73.2421V75.1242ZM457.398 86.7933V84.9112H450.905V86.7933V88.6754H457.398V86.7933ZM450.905 86.7933L452.705 86.2423C452.095 84.2494 450.858 82.7002 449.045 81.6905C447.287 80.7116 445.1 80.3 442.624 80.3V82.1821V84.0642C444.728 84.0642 446.211 84.4212 447.213 84.9793C448.161 85.5066 448.775 86.263 449.105 87.3442L450.905 86.7933ZM442.624 82.1821V80.3C437.486 80.3 433.054 82.127 429.436 85.7447L430.767 87.0756L432.097 88.4064C435.004 85.4996 438.477 84.0642 442.624 84.0642V82.1821ZM430.767 87.0756L429.449 85.7321C425.728 89.3824 423.897 94.0553 423.897 99.5916H425.779H427.661C427.661 94.9645 429.155 91.2934 432.085 88.419L430.767 87.0756ZM425.779 99.5916H423.897C423.897 105.066 425.496 109.879 428.73 113.939L430.202 112.766L431.674 111.594C429.011 108.251 427.661 104.281 427.661 99.5916H425.779ZM430.202 112.766L428.708 113.911C431.984 118.184 436.575 120.295 442.247 120.295V118.413V116.531C437.631 116.531 434.192 114.877 431.696 111.621L430.202 112.766ZM442.247 118.413V120.295C444.884 120.295 447.126 120.023 448.858 119.376C450.62 118.718 452.079 117.572 452.617 115.744L450.811 115.213L449.005 114.682C448.916 114.987 448.634 115.441 447.541 115.85C446.419 116.269 444.693 116.531 442.247 116.531V118.413ZM476.964 75.7829H478.846V73.9008H476.964V75.7829ZM500.678 75.7829V73.9008H498.796V75.7829H500.678ZM509.43 75.7829H511.312V73.9008H509.43V75.7829ZM509.43 125.282V127.164H511.312V125.282H509.43ZM500.678 125.282H498.796V127.164H500.678V125.282ZM500.678 117.472H502.56L498.931 116.773L500.678 117.472ZM486.186 126.412L486.166 128.294L486.176 128.294H486.186V126.412ZM468.212 75.7829V73.9008H466.33V75.7829H468.212ZM476.964 75.7829H475.081V101.285H476.964H478.846V75.7829H476.964ZM476.964 101.285H475.081C475.081 107.146 475.919 111.848 477.829 115.145C479.829 118.598 482.944 120.389 486.939 120.389V118.507V116.625C484.283 116.625 482.411 115.545 481.086 113.258C479.67 110.814 478.846 106.906 478.846 101.285H476.964ZM486.939 118.507V120.389C491.979 120.389 496.032 118.677 498.75 115.047C501.391 111.52 502.56 106.454 502.56 100.156H500.678H498.796C498.796 106.093 497.675 110.202 495.737 112.791C493.875 115.278 491.058 116.625 486.939 116.625V118.507ZM500.678 100.156H502.56V75.7829H500.678H498.796V100.156H500.678ZM500.678 75.7829V77.6651H509.43V75.7829V73.9008H500.678V75.7829ZM509.43 75.7829H507.548V125.282H509.43H511.312V75.7829H509.43ZM509.43 125.282V123.4H500.678V125.282V127.164H509.43V125.282ZM500.678 125.282H502.56V117.472H500.678H498.796V125.282H500.678ZM500.678 117.472L498.931 116.773C497.868 119.429 496.307 121.324 494.279 122.575C492.233 123.836 489.573 124.529 486.186 124.529V126.412V128.294C490.076 128.294 493.47 127.497 496.255 125.778C499.058 124.049 501.104 121.474 502.426 118.171L500.678 117.472ZM486.186 126.412L486.206 124.53C480.647 124.471 476.759 122.672 474.194 119.355C471.562 115.952 470.094 110.658 470.094 103.168H468.212H466.33C466.33 111.047 467.857 117.313 471.216 121.658C474.643 126.089 479.741 128.226 486.166 128.294L486.186 126.412ZM468.212 103.168H470.094V75.7829H468.212H466.33V103.168H468.212ZM468.212 75.7829V77.6651H476.964V75.7829V73.9008H468.212V75.7829ZM551.315 74.5596L553.197 74.5807L553.217 72.7861L551.425 72.6807L551.315 74.5596ZM551.221 82.9349L550.852 84.7805L553.077 85.2256L553.103 82.9561L551.221 82.9349ZM547.551 82.5585V80.6764H547.518L547.485 80.6776L547.551 82.5585ZM532.117 125.282V127.164H533.999V125.282H532.117ZM523.365 125.282H521.483V127.164H523.365V125.282ZM523.365 76.724V74.8419H521.483V76.724H523.365ZM532.117 76.724H533.999V74.8419H532.117V76.724ZM532.117 86.6992H530.235L533.919 87.2426L532.117 86.6992ZM538.046 77.5709L536.911 76.0693L536.903 76.0754L536.895 76.0817L538.046 77.5709ZM547.174 74.3714V76.2535C547.735 76.2535 549.057 76.3121 551.204 76.4384L551.315 74.5596L551.425 72.6807C549.307 72.5561 547.868 72.4893 547.174 72.4893V74.3714ZM551.315 74.5596L549.433 74.5384L549.339 82.9138L551.221 82.9349L553.103 82.9561L553.197 74.5807L551.315 74.5596ZM551.221 82.9349L551.59 81.0894C550.222 80.8159 548.875 80.6764 547.551 80.6764V82.5585V84.4406C548.61 84.4406 549.71 84.5521 550.852 84.7805L551.221 82.9349ZM547.551 82.5585L547.485 80.6776C541.87 80.8734 537.386 82.2505 534.457 85.1801L535.787 86.5109L537.118 87.8418C539.082 85.8779 542.44 84.62 547.616 84.4395L547.551 82.5585ZM535.787 86.5109L534.457 85.1801C531.532 88.1043 530.235 92.3377 530.235 97.5213H532.117H533.999C533.999 92.9179 535.149 89.8111 537.118 87.8418L535.787 86.5109ZM532.117 97.5213H530.235V125.282H532.117H533.999V97.5213H532.117ZM532.117 125.282V123.4H523.365V125.282V127.164H532.117V125.282ZM523.365 125.282H525.248V76.724H523.365H521.483V125.282H523.365ZM523.365 76.724V78.6061H532.117V76.724V74.8419H523.365V76.724ZM532.117 76.724H530.235V86.6992H532.117H533.999V76.724H532.117ZM532.117 86.6992L533.919 87.2426C535.019 83.5949 536.8 80.912 539.197 79.0602L538.046 77.5709L536.895 76.0817C533.771 78.496 531.599 81.8986 530.315 86.1557L532.117 86.6992ZM538.046 77.5709L539.181 79.0726C541.706 77.1643 544.357 76.2535 547.174 76.2535V74.3714V72.4893C543.467 72.4893 540.032 73.7115 536.911 76.0693L538.046 77.5709ZM598.733 86.2286L599.246 88.0393L601.047 87.5286L600.546 85.7249L598.733 86.2286ZM592.428 88.0166L590.634 88.5873L591.187 90.3248L592.941 89.8273L592.428 88.0166ZM587.158 82.9349L586.676 84.7544L586.699 84.7604L586.722 84.7659L587.158 82.9349ZM575.301 82.1821L575.156 80.3055L575.144 80.3065L575.301 82.1821ZM570.219 84.0642L571.469 85.4709L571.491 85.452L571.511 85.4325L570.219 84.0642ZM571.725 93.8512L572.566 92.1678V92.1677L571.725 93.8512ZM579.441 96.0156L579.707 94.1524L579.691 94.1501L579.675 94.148L579.441 96.0156ZM588.664 97.7095L589.084 95.8749L589.076 95.8731L588.664 97.7095ZM596.38 102.038L595.03 103.35L595.04 103.36L595.049 103.369L596.38 102.038ZM594.686 121.33L595.888 122.778L595.895 122.772L595.902 122.767L594.686 121.33ZM558.832 112.484L558.472 110.637L556.649 110.992L556.98 112.82L558.832 112.484ZM566.078 111.072L567.916 110.667L567.521 108.874L565.718 109.225L566.078 111.072ZM588.664 115.589L589.732 117.139V117.139L588.664 115.589ZM588.099 104.673L587.339 106.395L587.348 106.399L587.357 106.403L588.099 104.673ZM580.288 102.697L580.517 100.829V100.829L580.288 102.697ZM571.16 101.191L571.544 99.3488L571.536 99.3473L571.16 101.191ZM563.255 97.1448L561.944 98.4954L561.954 98.5049L561.964 98.5142L563.255 97.1448ZM592.051 77.0063L591.171 78.6697L591.184 78.6765L591.196 78.6831L592.051 77.0063ZM598.733 86.2286L598.219 84.4179L591.914 86.2059L592.428 88.0166L592.941 89.8273L599.246 88.0393L598.733 86.2286ZM592.428 88.0166L594.221 87.446C593.16 84.1094 590.923 81.8968 587.594 81.104L587.158 82.9349L586.722 84.7659C588.662 85.2279 589.939 86.403 590.634 88.5873L592.428 88.0166ZM587.158 82.9349L587.639 81.1155C585.329 80.504 582.844 80.2059 580.194 80.2059V82.088V83.9701C582.563 83.9701 584.72 84.2366 586.676 84.7544L587.158 82.9349ZM580.194 82.088V80.2059C577.759 80.2059 576.056 80.2363 575.156 80.3055L575.301 82.1821L575.445 84.0587C576.176 84.0024 577.735 83.9701 580.194 83.9701V82.088ZM575.301 82.1821L575.144 80.3065C572.649 80.5144 570.48 81.2284 568.927 82.6959L570.219 84.0642L571.511 85.4325C572.216 84.767 573.435 84.2262 575.457 84.0577L575.301 82.1821ZM570.219 84.0642L568.968 82.6575C567.273 84.1645 566.643 86.4298 566.643 88.9577H568.525H570.407C570.407 86.9686 570.906 85.9714 571.469 85.4709L570.219 84.0642ZM568.525 88.9577H566.643C566.643 90.3736 566.991 91.6984 567.75 92.8579C568.502 94.0085 569.585 94.8855 570.883 95.5346L571.725 93.8512L572.566 92.1677C571.731 91.7503 571.214 91.2784 570.9 90.7979C570.592 90.3263 570.407 89.7376 570.407 88.9577H568.525ZM571.725 93.8512L570.883 95.5346C573.251 96.7185 576.04 97.4871 579.208 97.8831L579.441 96.0156L579.675 94.148C576.82 93.7912 574.465 93.1169 572.566 92.1678L571.725 93.8512ZM579.441 96.0156L579.175 97.8788C582.199 98.3108 585.225 98.8665 588.251 99.5459L588.664 97.7095L589.076 95.8731C585.954 95.1723 582.831 94.5986 579.707 94.1524L579.441 96.0156ZM588.664 97.7095L588.243 99.544C590.904 100.154 593.152 101.417 595.03 103.35L596.38 102.038L597.73 100.727C595.342 98.2682 592.446 96.6453 589.084 95.8749L588.664 97.7095ZM596.38 102.038L595.049 103.369C596.725 105.044 597.698 107.574 597.698 111.261H599.58H601.462C601.462 106.917 600.302 103.298 597.711 100.707L596.38 102.038ZM599.58 111.261H597.698C597.698 114.61 596.349 117.457 593.471 119.893L594.686 121.33L595.902 122.767C599.548 119.682 601.462 115.816 601.462 111.261H599.58ZM594.686 121.33L593.484 119.882C590.632 122.25 586.212 123.588 579.912 123.588V125.471V127.353C586.661 127.353 592.091 125.931 595.888 122.778L594.686 121.33ZM579.912 125.471V123.588C573.852 123.588 569.367 122.532 566.266 120.621C563.24 118.758 561.38 115.991 560.684 112.148L558.832 112.484L556.98 112.82C557.853 117.635 560.29 121.361 564.291 123.826C568.216 126.245 573.487 127.353 579.912 127.353V125.471ZM558.832 112.484L559.192 114.331L566.438 112.92L566.078 111.072L565.718 109.225L558.472 110.637L558.832 112.484ZM566.078 111.072L564.24 111.478C564.859 114.283 566.712 116.312 569.452 117.58C572.114 118.811 575.65 119.354 579.912 119.354V117.472V115.589C575.893 115.589 572.982 115.066 571.033 114.164C569.162 113.298 568.238 112.128 567.916 110.667L566.078 111.072ZM579.912 117.472V119.354C584.038 119.354 587.432 118.725 589.732 117.139L588.664 115.589L587.595 114.04C586.256 114.963 583.816 115.589 579.912 115.589V117.472ZM588.664 115.589L589.732 117.139C592.234 115.413 593.275 112.575 593.275 109.19H591.393H589.51C589.51 111.828 588.732 113.256 587.595 114.04L588.664 115.589ZM591.393 109.19H593.275C593.275 107.803 592.9 106.51 592.09 105.399C591.293 104.306 590.163 103.51 588.84 102.943L588.099 104.673L587.357 106.403C588.231 106.777 588.747 107.205 589.048 107.617C589.337 108.012 589.51 108.507 589.51 109.19H591.393ZM588.099 104.673L588.859 102.951C586.512 101.916 583.718 101.221 580.517 100.829L580.288 102.697L580.059 104.565C583.007 104.926 585.42 105.549 587.339 106.395L588.099 104.673ZM580.288 102.697L580.517 100.829C577.494 100.459 574.503 99.9654 571.544 99.3488L571.16 101.191L570.776 103.034C573.839 103.672 576.934 104.182 580.059 104.565L580.288 102.697ZM571.16 101.191L571.536 99.3473C568.791 98.787 566.477 97.5957 564.546 95.7754L563.255 97.1448L561.964 98.5142C564.425 100.835 567.381 102.341 570.784 103.035L571.16 101.191ZM563.255 97.1448L564.566 95.7943C562.877 94.1551 561.938 91.833 561.938 88.5813H560.056H558.173C558.173 92.607 559.367 95.9939 561.944 98.4954L563.255 97.1448ZM560.056 88.5813H561.938C561.938 84.3494 563.345 81.4405 565.97 79.5107C568.702 77.5015 573.029 76.3476 579.253 76.3476V74.4655V72.5834C572.679 72.5834 567.407 73.782 563.74 76.4781C559.965 79.2536 558.173 83.4026 558.173 88.5813H560.056ZM579.253 74.4655V76.3476C584.413 76.3476 588.34 77.1714 591.171 78.6697L592.051 77.0063L592.932 75.3429C589.363 73.4535 584.758 72.5834 579.253 72.5834V74.4655ZM592.051 77.0063L591.196 78.6831C593.794 80.0072 595.76 82.5596 596.919 86.7324L598.733 86.2286L600.546 85.7249C599.196 80.8635 596.708 77.2678 592.906 75.3295L592.051 77.0063ZM648.559 81.4293L647.176 82.7066V82.7066L648.559 81.4293ZM648.464 119.071L647.06 117.819L647.051 117.828L648.464 119.071ZM614.869 119.071L613.43 120.285V120.285L614.869 119.071ZM614.869 81.4293L613.46 80.1811V80.1811L614.869 81.4293ZM620.798 86.605L619.252 85.531V85.531L620.798 86.605ZM620.703 113.707L619.107 114.705L619.112 114.711L620.703 113.707ZM641.971 113.801L643.533 114.851L643.543 114.837L643.552 114.823L641.971 113.801ZM641.971 86.605L640.438 87.6965L640.442 87.7028L640.447 87.7089L641.971 86.605ZM648.559 81.4293L647.176 82.7066C651.4 87.277 653.546 93.0154 653.546 100.062H655.428H657.31C657.31 92.1775 654.877 85.494 649.941 80.1519L648.559 81.4293ZM655.428 100.062H653.546C653.546 107.101 651.372 112.982 647.06 117.819L648.464 119.071L649.869 120.324C654.842 114.746 657.31 107.954 657.31 100.062H655.428ZM648.464 119.071L647.051 117.828C642.815 122.645 637.677 125 631.526 125V126.882V128.764C638.799 128.764 644.954 125.912 649.878 120.314L648.464 119.071ZM631.526 126.882V125C625.377 125 620.348 122.648 616.308 117.858L614.869 119.071L613.43 120.285C618.173 125.909 624.249 128.764 631.526 128.764V126.882ZM614.869 119.071L616.308 117.858C612.231 113.024 610.164 107.129 610.164 100.062H608.282H606.399C606.399 107.926 608.724 114.705 613.43 120.285L614.869 119.071ZM608.282 100.062H610.164C610.164 92.9936 612.23 87.2452 616.278 82.6774L614.869 81.4293L613.46 80.1811C608.724 85.5258 606.399 92.1993 606.399 100.062H608.282ZM614.869 81.4293L616.278 82.6774C620.303 78.1349 625.368 75.877 631.62 75.877V73.9949V72.1128C624.32 72.1128 618.218 74.8111 613.46 80.1811L614.869 81.4293ZM631.62 73.9949V75.877C637.804 75.877 642.951 78.1336 647.176 82.7066L648.559 81.4293L649.941 80.1519C645.007 74.8125 638.861 72.1128 631.62 72.1128V73.9949ZM620.798 86.605L619.252 85.531C616.428 89.5948 615.057 94.4384 615.057 99.968H616.939H618.821C618.821 95.0833 620.023 91.0183 622.343 87.6791L620.798 86.605ZM616.939 99.968H615.057C615.057 105.433 616.395 110.365 619.107 114.705L620.703 113.707L622.299 112.71C619.993 109.02 618.821 104.791 618.821 99.968H616.939ZM620.703 113.707L619.112 114.711C621.994 119.282 626.081 121.706 631.243 121.706V119.824V117.942C627.496 117.942 624.557 116.289 622.295 112.703L620.703 113.707ZM631.243 119.824V121.706C636.386 121.706 640.522 119.334 643.533 114.851L641.971 113.801L640.409 112.752C638.025 116.3 635.009 117.942 631.243 117.942V119.824ZM641.971 113.801L643.552 114.823C646.398 110.418 647.806 105.416 647.806 99.8739H645.924H644.042C644.042 104.746 642.814 109.029 640.39 112.78L641.971 113.801ZM645.924 99.8739H647.806C647.806 94.3356 646.399 89.5101 643.496 85.5012L641.971 86.605L640.447 87.7089C642.814 90.9774 644.042 94.9979 644.042 99.8739H645.924ZM641.971 86.605L643.504 85.5136C640.525 81.3279 636.415 79.1707 631.337 79.1707V81.0528V82.9349C635.168 82.9349 638.148 84.4793 640.438 87.6965L641.971 86.605ZM631.337 81.0528V79.1707C626.258 79.1707 622.171 81.3306 619.252 85.531L620.798 86.605L622.343 87.6791C624.569 84.4766 627.508 82.9349 631.337 82.9349V81.0528ZM702.296 86.2286L702.81 88.0393L704.611 87.5286L704.11 85.7249L702.296 86.2286ZM695.991 88.0166L694.198 88.5873L694.751 90.3248L696.505 89.8273L695.991 88.0166ZM690.721 82.9349L690.24 84.7544L690.263 84.7604L690.285 84.7659L690.721 82.9349ZM678.864 82.1821L678.72 80.3055L678.708 80.3065L678.864 82.1821ZM673.782 84.0642L675.033 85.4709L675.054 85.452L675.075 85.4325L673.782 84.0642ZM675.288 93.8512L676.13 92.1678V92.1677L675.288 93.8512ZM683.005 96.0156L683.271 94.1524L683.255 94.1501L683.238 94.148L683.005 96.0156ZM692.227 97.7095L692.647 95.8749L692.639 95.8731L692.227 97.7095ZM699.944 102.038L698.594 103.35L698.603 103.36L698.613 103.369L699.944 102.038ZM698.25 121.33L699.452 122.778L699.459 122.772L699.466 122.767L698.25 121.33ZM662.396 112.484L662.036 110.637L660.213 110.992L660.544 112.82L662.396 112.484ZM669.642 111.072L671.48 110.667L671.084 108.874L669.282 109.225L669.642 111.072ZM692.227 115.589L693.296 117.139V117.139L692.227 115.589ZM691.662 104.673L690.903 106.395L690.912 106.399L690.921 106.403L691.662 104.673ZM683.852 102.697L684.08 100.829V100.829L683.852 102.697ZM674.724 101.191L675.107 99.3488L675.1 99.3473L674.724 101.191ZM666.819 97.1448L665.508 98.4954L665.518 98.5049L665.527 98.5142L666.819 97.1448ZM695.615 77.0063L694.734 78.6697L694.747 78.6765L694.76 78.6831L695.615 77.0063ZM702.296 86.2286L701.783 84.4179L695.478 86.2059L695.991 88.0166L696.505 89.8273L702.81 88.0393L702.296 86.2286ZM695.991 88.0166L697.785 87.446C696.723 84.1094 694.487 81.8968 691.157 81.104L690.721 82.9349L690.285 84.7659C692.226 85.2279 693.503 86.403 694.198 88.5873L695.991 88.0166ZM690.721 82.9349L691.203 81.1155C688.893 80.504 686.408 80.2059 683.758 80.2059V82.088V83.9701C686.126 83.9701 688.284 84.2366 690.24 84.7544L690.721 82.9349ZM683.758 82.088V80.2059C681.323 80.2059 679.619 80.2363 678.72 80.3055L678.864 82.1821L679.008 84.0587C679.74 84.0024 681.299 83.9701 683.758 83.9701V82.088ZM678.864 82.1821L678.708 80.3065C676.213 80.5144 674.044 81.2284 672.49 82.6959L673.782 84.0642L675.075 85.4325C675.779 84.767 676.998 84.2262 679.02 84.0577L678.864 82.1821ZM673.782 84.0642L672.532 82.6575C670.837 84.1645 670.206 86.4298 670.206 88.9577H672.089H673.971C673.971 86.9686 674.47 85.9714 675.033 85.4709L673.782 84.0642ZM672.089 88.9577H670.206C670.206 90.3736 670.555 91.6984 671.313 92.8579C672.066 94.0085 673.148 94.8855 674.446 95.5346L675.288 93.8512L676.13 92.1677C675.295 91.7503 674.778 91.2784 674.464 90.7979C674.155 90.3263 673.971 89.7376 673.971 88.9577H672.089ZM675.288 93.8512L674.446 95.5346C676.814 96.7185 679.603 97.4871 682.771 97.8831L683.005 96.0156L683.238 94.148C680.384 93.7912 678.028 93.1169 676.13 92.1678L675.288 93.8512ZM683.005 96.0156L682.739 97.8788C685.763 98.3108 688.788 98.8665 691.815 99.5459L692.227 97.7095L692.639 95.8731C689.518 95.1723 686.395 94.5986 683.271 94.1524L683.005 96.0156ZM692.227 97.7095L691.807 99.544C694.468 100.154 696.716 101.417 698.594 103.35L699.944 102.038L701.294 100.727C698.905 98.2682 696.009 96.6453 692.647 95.8749L692.227 97.7095ZM699.944 102.038L698.613 103.369C700.288 105.044 701.261 107.574 701.261 111.261H703.143H705.025C705.025 106.917 703.865 103.298 701.275 100.707L699.944 102.038ZM703.143 111.261H701.261C701.261 114.61 699.913 117.457 697.034 119.893L698.25 121.33L699.466 122.767C703.112 119.682 705.025 115.816 705.025 111.261H703.143ZM698.25 121.33L697.048 119.882C694.195 122.25 689.776 123.588 683.475 123.588V125.471V127.353C690.224 127.353 695.654 125.931 699.452 122.778L698.25 121.33ZM683.475 125.471V123.588C677.416 123.588 672.93 122.532 669.829 120.621C666.804 118.758 664.944 115.991 664.248 112.148L662.396 112.484L660.544 112.82C661.416 117.635 663.854 121.361 667.855 123.826C671.78 126.245 677.05 127.353 683.475 127.353V125.471ZM662.396 112.484L662.756 114.331L670.002 112.92L669.642 111.072L669.282 109.225L662.036 110.637L662.396 112.484ZM669.642 111.072L667.804 111.478C668.423 114.283 670.275 116.312 673.016 117.58C675.677 118.811 679.213 119.354 683.475 119.354V117.472V115.589C679.456 115.589 676.546 115.066 674.596 114.164C672.726 113.298 671.802 112.128 671.48 110.667L669.642 111.072ZM683.475 117.472V119.354C687.602 119.354 690.996 118.725 693.296 117.139L692.227 115.589L691.159 114.04C689.82 114.963 687.379 115.589 683.475 115.589V117.472ZM692.227 115.589L693.296 117.139C695.797 115.413 696.838 112.575 696.838 109.19H694.956H693.074C693.074 111.828 692.295 113.256 691.159 114.04L692.227 115.589ZM694.956 109.19H696.838C696.838 107.803 696.463 106.51 695.653 105.399C694.856 104.306 693.727 103.51 692.404 102.943L691.662 104.673L690.921 106.403C691.794 106.777 692.311 107.205 692.612 107.617C692.9 108.012 693.074 108.507 693.074 109.19H694.956ZM691.662 104.673L692.422 102.951C690.075 101.916 687.282 101.221 684.08 100.829L683.852 102.697L683.623 104.565C686.57 104.926 688.984 105.549 690.903 106.395L691.662 104.673ZM683.852 102.697L684.08 100.829C681.058 100.459 678.067 99.9654 675.107 99.3488L674.724 101.191L674.34 103.034C677.403 103.672 680.497 104.182 683.623 104.565L683.852 102.697ZM674.724 101.191L675.1 99.3473C672.355 98.787 670.04 97.5957 668.11 95.7754L666.819 97.1448L665.527 98.5142C667.989 100.835 670.944 102.341 674.347 103.035L674.724 101.191ZM666.819 97.1448L668.129 95.7943C666.441 94.1551 665.501 91.833 665.501 88.5813H663.619H661.737C661.737 92.607 662.931 95.9939 665.508 98.4954L666.819 97.1448ZM663.619 88.5813H665.501C665.501 84.3494 666.909 81.4405 669.533 79.5107C672.266 77.5015 676.593 76.3476 682.817 76.3476V74.4655V72.5834C676.242 72.5834 670.97 73.782 667.303 76.4781C663.529 79.2536 661.737 83.4026 661.737 88.5813H663.619ZM682.817 74.4655V76.3476C687.977 76.3476 691.904 77.1714 694.734 78.6697L695.615 77.0063L696.495 75.3429C692.927 73.4535 688.322 72.5834 682.817 72.5834V74.4655ZM695.615 77.0063L694.76 78.6831C697.357 80.0072 699.324 82.5596 700.483 86.7324L702.296 86.2286L704.11 85.7249C702.759 80.8635 700.272 77.2678 696.47 75.3295L695.615 77.0063ZM799.815 56.7737V54.8916H797.933V56.7737H799.815ZM808.755 56.7737H810.637V54.8916H808.755V56.7737ZM808.755 125V126.882H810.637V125H808.755ZM800.097 125L798.635 126.185L799.2 126.882H800.097V125ZM756.244 70.8895L757.707 69.7044L754.362 65.5779V70.8895H756.244ZM756.244 125.282V127.164H758.126V125.282H756.244ZM747.587 125.282H745.705V127.164H747.587V125.282ZM747.587 56.7737V54.8916H745.705V56.7737H747.587ZM755.586 56.7737L757.047 55.5875L756.482 54.8916H755.586V56.7737ZM799.815 111.261L798.354 112.447L801.697 116.566V111.261H799.815ZM799.815 56.7737V58.6558H808.755V56.7737V54.8916H799.815V56.7737ZM808.755 56.7737H806.873V125H808.755H810.637V56.7737H808.755ZM808.755 125V123.118H800.097V125V126.882H808.755V125ZM800.097 125L801.56 123.815L757.707 69.7044L756.244 70.8895L754.782 72.0745L798.635 126.185L800.097 125ZM756.244 70.8895H754.362V125.282H756.244H758.126V70.8895H756.244ZM756.244 125.282V123.4H747.587V125.282V127.164H756.244V125.282ZM747.587 125.282H749.469V56.7737H747.587H745.705V125.282H747.587ZM747.587 56.7737V58.6558H755.586V56.7737V54.8916H747.587V56.7737ZM755.586 56.7737L754.124 57.9599L798.354 112.447L799.815 111.261L801.276 110.074L757.047 55.5875L755.586 56.7737ZM799.815 111.261H801.697V56.7737H799.815H797.933V111.261H799.815ZM852.94 90.3693L854.804 90.6354L854.823 90.503V90.3693H852.94ZM826.591 86.3227L825.288 87.6805L826.573 88.9142L827.875 87.6987L826.591 86.3227ZM821.886 81.8057L820.555 80.4748L819.197 81.8331L820.582 83.1634L821.886 81.8057ZM863.857 125.188L863.805 127.07L866.945 127.156L865.54 124.347L863.857 125.188ZM856.987 125L856.036 126.624L856.453 126.868L856.935 126.881L856.987 125ZM852.752 117.283L854.63 117.154L854.206 111.01L851.123 116.341L852.752 117.283ZM839.954 126.035V127.917H840.061L840.166 127.905L839.954 126.035ZM826.12 121.895L824.877 123.307V123.307L826.12 121.895ZM824.238 100.909L822.649 99.9008L822.637 99.9206L822.624 99.9407L824.238 100.909ZM852.752 91.6867L852.791 93.5685L854.389 93.5357L854.615 91.9529L852.752 91.6867ZM831.484 115.778L833.072 114.767L833.045 114.725L833.016 114.684L831.484 115.778ZM847.294 115.684L846.272 114.103L846.245 114.121L846.218 114.14L847.294 115.684ZM852.094 108.249L850.317 107.628L850.302 107.669L850.29 107.711L852.094 108.249ZM852.752 97.8977H854.634V95.9501L852.688 96.0167L852.752 97.8977ZM835.907 101.85L836.872 103.466L836.881 103.461L836.891 103.455L835.907 101.85ZM852.94 90.3693H854.823C854.823 86.9195 853.855 84.0022 851.612 81.983C849.406 79.9977 846.283 79.1707 842.589 79.1707V81.0528V82.9349C845.795 82.9349 847.849 83.6607 849.094 84.7809C850.3 85.8672 851.058 87.6081 851.058 90.3693H852.94ZM842.589 81.0528V79.1707C835.377 79.1707 829.524 81.0106 825.307 84.9468L826.591 86.3227L827.875 87.6987C831.186 84.6083 835.999 82.9349 842.589 82.9349V81.0528ZM826.591 86.3227L827.894 84.965L823.189 80.448L821.886 81.8057L820.582 83.1634L825.288 87.6805L826.591 86.3227ZM821.886 81.8057L823.217 83.1365C827.748 78.6047 833.943 76.2535 842.024 76.2535V74.3714V72.4893C833.167 72.4893 825.936 75.0942 820.555 80.4748L821.886 81.8057ZM842.024 74.3714V76.2535H842.495V74.3714V72.4893H842.024V74.3714ZM842.495 74.3714V76.2535C848.342 76.2535 852.394 77.8343 855.014 80.6807C857.662 83.5566 859.151 88.0503 859.151 94.5099H861.034H862.916C862.916 87.5438 861.316 81.9683 857.784 78.1313C854.224 74.2649 849.006 72.4893 842.495 72.4893V74.3714ZM861.034 94.5099H859.151V115.778H861.034H862.916V94.5099H861.034ZM861.034 115.778H859.151C859.151 118.714 860.238 122.159 862.173 126.03L863.857 125.188L865.54 124.347C863.711 120.689 862.916 117.861 862.916 115.778H861.034ZM863.857 125.188L863.908 123.307L857.039 123.119L856.987 125L856.935 126.881L863.805 127.07L863.857 125.188ZM856.987 125L857.938 123.376C856.026 122.257 854.849 120.33 854.63 117.154L852.752 117.283L850.875 117.413C851.157 121.515 852.803 124.732 856.036 126.624L856.987 125ZM852.752 117.283L851.123 116.341C848.382 121.082 844.615 123.611 839.741 124.165L839.954 126.035L840.166 127.905C846.335 127.204 851.1 123.899 854.382 118.226L852.752 117.283ZM839.954 126.035V124.153C834.121 124.153 830.029 122.827 827.364 120.482L826.12 121.895L824.877 123.307C828.485 126.483 833.616 127.917 839.954 127.917V126.035ZM826.12 121.895L827.364 120.482C824.599 118.049 823.297 115.224 823.297 111.919H821.415H819.533C819.533 116.394 821.368 120.22 824.877 123.307L826.12 121.895ZM821.415 111.919H823.297V111.637H821.415H819.533V111.919H821.415ZM821.415 111.637H823.297C823.297 107.929 824.163 104.694 825.852 101.877L824.238 100.909L822.624 99.9407C820.55 103.398 819.533 107.315 819.533 111.637H821.415ZM824.238 100.909L825.828 101.917C827.358 99.5051 830.206 97.4791 834.722 96.0183C839.233 94.5594 845.234 93.7233 852.791 93.5685L852.752 91.6867L852.714 89.805C844.963 89.9639 838.558 90.8216 833.564 92.4368C828.576 94.0502 824.82 96.4785 822.649 99.9008L824.238 100.909ZM852.752 91.6867L854.615 91.9529L854.804 90.6354L852.94 90.3693L851.077 90.1031L850.889 91.4206L852.752 91.6867ZM831.484 115.778L829.897 116.788C830.677 118.015 831.976 118.725 833.378 119.136C834.794 119.552 836.538 119.73 838.542 119.73V117.848V115.966C836.72 115.966 835.374 115.799 834.437 115.524C833.487 115.246 833.17 114.921 833.072 114.767L831.484 115.778ZM838.542 117.848V119.73C842.513 119.73 845.864 118.975 848.37 117.228L847.294 115.684L846.218 114.14C844.584 115.279 842.1 115.966 838.542 115.966V117.848ZM847.294 115.684L848.317 117.264C850.968 115.548 852.761 112.596 853.897 108.787L852.094 108.249L850.29 107.711C849.293 111.054 847.887 113.058 846.272 114.103L847.294 115.684ZM852.094 108.249L853.87 108.871C854.327 107.566 854.634 106.349 854.634 105.332H852.752H850.87C850.87 105.695 850.739 106.423 850.317 107.628L852.094 108.249ZM852.752 105.332H854.634V97.8977H852.752H850.87V105.332H852.752ZM852.752 97.8977L852.688 96.0167C845.201 96.2727 839.211 97.6177 834.924 100.245L835.907 101.85L836.891 103.455C840.383 101.314 845.623 100.025 852.817 99.7787L852.752 97.8977ZM835.907 101.85L834.943 100.234C830.646 102.798 828.191 106.32 828.191 110.79H830.073H831.955C831.955 107.983 833.39 105.544 836.872 103.466L835.907 101.85ZM830.073 110.79H828.191C828.191 113.095 828.734 115.165 829.953 116.872L831.484 115.778L833.016 114.684C832.353 113.755 831.955 112.501 831.955 110.79H830.073ZM902.674 116.342L904.53 116.033L903.929 112.425L901.343 115.011L902.674 116.342ZM903.238 119.73L905.006 120.376L905.176 119.91L905.095 119.421L903.238 119.73ZM878.771 83.5937H880.653V81.7116H878.771V83.5937ZM871.901 83.5937H870.019V85.4758H871.901V83.5937ZM871.901 76.724V74.8419H870.019V76.724H871.901ZM878.771 76.724V78.6061H880.653V76.724H878.771ZM878.771 62.1377V60.2556H876.889V62.1377H878.771ZM887.335 62.1377H889.217V60.2556H887.335V62.1377ZM887.335 76.724H885.452V78.6061H887.335V76.724ZM901.356 76.724H903.238V74.8419H901.356V76.724ZM901.356 83.5937V85.4758H903.238V83.5937H901.356ZM887.335 83.5937V81.7116H885.452V83.5937H887.335ZM902.674 116.342L900.817 116.652L901.382 120.04L903.238 119.73L905.095 119.421L904.53 116.033L902.674 116.342ZM903.238 119.73L901.47 119.085C900.915 120.606 899.927 121.727 898.422 122.504C896.868 123.307 894.686 123.777 891.757 123.777V125.659V127.541C895.04 127.541 897.877 127.022 900.149 125.849C902.472 124.65 904.119 122.807 905.006 120.376L903.238 119.73ZM891.757 125.659V123.777C887.729 123.777 885.051 122.75 883.363 121.025C881.667 119.292 880.653 116.533 880.653 112.39H878.771H876.889C876.889 117.093 878.04 120.968 880.672 123.658C883.313 126.356 887.128 127.541 891.757 127.541V125.659ZM878.771 112.39H880.653V83.5937H878.771H876.889V112.39H878.771ZM878.771 83.5937V81.7116H871.901V83.5937V85.4758H878.771V83.5937ZM871.901 83.5937H873.783V76.724H871.901H870.019V83.5937H871.901ZM871.901 76.724V78.6061H878.771V76.724V74.8419H871.901V76.724ZM878.771 76.724H880.653V62.1377H878.771H876.889V76.724H878.771ZM878.771 62.1377V64.0198H887.335V62.1377V60.2556H878.771V62.1377ZM887.335 62.1377H885.452V76.724H887.335H889.217V62.1377H887.335ZM887.335 76.724V78.6061H901.356V76.724V74.8419H887.335V76.724ZM901.356 76.724H899.474V83.5937H901.356H903.238V76.724H901.356ZM901.356 83.5937V81.7116H887.335V83.5937V85.4758H901.356V83.5937ZM887.335 83.5937H885.452V111.072H887.335H889.217V83.5937H887.335ZM887.335 111.072H885.452C885.452 113.941 886.18 116.436 887.964 118.199C889.744 119.957 892.257 120.671 895.145 120.671V118.789V116.907C892.826 116.907 891.434 116.335 890.61 115.521C889.791 114.711 889.217 113.349 889.217 111.072H887.335ZM895.145 118.789V120.671C898.799 120.671 901.884 119.794 904.005 117.673L902.674 116.342L901.343 115.011C900.201 116.153 898.267 116.907 895.145 116.907V118.789ZM921.357 75.7829H923.239V73.9008H921.357V75.7829ZM945.072 75.7829V73.9008H943.19V75.7829H945.072ZM953.823 75.7829H955.706V73.9008H953.823V75.7829ZM953.823 125.282V127.164H955.706V125.282H953.823ZM945.072 125.282H943.19V127.164H945.072V125.282ZM945.072 117.472H946.954L943.324 116.773L945.072 117.472ZM930.58 126.412L930.56 128.294L930.57 128.294H930.58V126.412ZM912.605 75.7829V73.9008H910.723V75.7829H912.605ZM921.357 75.7829H919.475V101.285H921.357H923.239V75.7829H921.357ZM921.357 101.285H919.475C919.475 107.146 920.313 111.848 922.222 115.145C924.222 118.598 927.338 120.389 931.332 120.389V118.507V116.625C928.677 116.625 926.805 115.545 925.48 113.258C924.064 110.814 923.239 106.906 923.239 101.285H921.357ZM931.332 118.507V120.389C936.373 120.389 940.426 118.677 943.143 115.047C945.785 111.52 946.954 106.454 946.954 100.156H945.072H943.19C943.19 106.093 942.069 110.202 940.13 112.791C938.268 115.278 935.452 116.625 931.332 116.625V118.507ZM945.072 100.156H946.954V75.7829H945.072H943.19V100.156H945.072ZM945.072 75.7829V77.6651H953.823V75.7829V73.9008H945.072V75.7829ZM953.823 75.7829H951.941V125.282H953.823H955.706V75.7829H953.823ZM953.823 125.282V123.4H945.072V125.282V127.164H953.823V125.282ZM945.072 125.282H946.954V117.472H945.072H943.19V125.282H945.072ZM945.072 117.472L943.324 116.773C942.262 119.429 940.7 121.324 938.673 122.575C936.627 123.836 933.966 124.529 930.58 124.529V126.412V128.294C934.47 128.294 937.863 127.497 940.649 125.778C943.452 124.049 945.498 121.474 946.819 118.171L945.072 117.472ZM930.58 126.412L930.599 124.53C925.041 124.471 921.153 122.672 918.588 119.355C915.956 115.952 914.487 110.658 914.487 103.168H912.605H910.723C910.723 111.047 912.251 117.313 915.61 121.658C919.037 126.089 924.135 128.226 930.56 128.294L930.58 126.412ZM912.605 103.168H914.487V75.7829H912.605H910.723V103.168H912.605ZM912.605 75.7829V77.6651H921.357V75.7829V73.9008H912.605V75.7829ZM995.708 74.5596L997.59 74.5807L997.611 72.7861L995.819 72.6807L995.708 74.5596ZM995.614 82.9349L995.245 84.7805L997.471 85.2256L997.496 82.9561L995.614 82.9349ZM991.944 82.5585V80.6764H991.911L991.879 80.6776L991.944 82.5585ZM976.511 125.282V127.164H978.393V125.282H976.511ZM967.759 125.282H965.877V127.164H967.759V125.282ZM967.759 76.724V74.8419H965.877V76.724H967.759ZM976.511 76.724H978.393V74.8419H976.511V76.724ZM976.511 86.6992H974.629L978.313 87.2426L976.511 86.6992ZM982.44 77.5709L981.305 76.0693L981.297 76.0754L981.289 76.0817L982.44 77.5709ZM991.568 74.3714V76.2535C992.129 76.2535 993.451 76.3121 995.598 76.4384L995.708 74.5596L995.819 72.6807C993.7 72.5561 992.261 72.4893 991.568 72.4893V74.3714ZM995.708 74.5596L993.826 74.5384L993.732 82.9138L995.614 82.9349L997.496 82.9561L997.59 74.5807L995.708 74.5596ZM995.614 82.9349L995.983 81.0894C994.616 80.8159 993.269 80.6764 991.944 80.6764V82.5585V84.4406C993.004 84.4406 994.103 84.5521 995.245 84.7805L995.614 82.9349ZM991.944 82.5585L991.879 80.6776C986.264 80.8734 981.78 82.2505 978.85 85.1801L980.181 86.5109L981.512 87.8418C983.476 85.8779 986.834 84.62 992.01 84.4395L991.944 82.5585ZM980.181 86.5109L978.85 85.1801C975.926 88.1043 974.629 92.3377 974.629 97.5213H976.511H978.393C978.393 92.9179 979.543 89.8111 981.512 87.8418L980.181 86.5109ZM976.511 97.5213H974.629V125.282H976.511H978.393V97.5213H976.511ZM976.511 125.282V123.4H967.759V125.282V127.164H976.511V125.282ZM967.759 125.282H969.641V76.724H967.759H965.877V125.282H967.759ZM967.759 76.724V78.6061H976.511V76.724V74.8419H967.759V76.724ZM976.511 76.724H974.629V86.6992H976.511H978.393V76.724H976.511ZM976.511 86.6992L978.313 87.2426C979.413 83.5949 981.194 80.912 983.59 79.0602L982.44 77.5709L981.289 76.0817C978.164 78.496 975.993 81.8986 974.709 86.1557L976.511 86.6992ZM982.44 77.5709L983.574 79.0726C986.1 77.1643 988.75 76.2535 991.568 76.2535V74.3714V72.4893C987.861 72.4893 984.426 73.7115 981.305 76.0693L982.44 77.5709ZM1036.63 90.3693L1038.5 90.6354L1038.52 90.503V90.3693H1036.63ZM1010.28 86.3227L1008.98 87.6805L1010.27 88.9142L1011.57 87.6987L1010.28 86.3227ZM1005.58 81.8057L1004.25 80.4748L1002.89 81.8331L1004.28 83.1634L1005.58 81.8057ZM1047.55 125.188L1047.5 127.07L1050.64 127.156L1049.23 124.347L1047.55 125.188ZM1040.68 125L1039.73 126.624L1040.15 126.868L1040.63 126.881L1040.68 125ZM1036.45 117.283L1038.32 117.154L1037.9 111.01L1034.82 116.341L1036.45 117.283ZM1023.65 126.035V127.917H1023.75L1023.86 127.905L1023.65 126.035ZM1009.81 121.895L1008.57 123.307V123.307L1009.81 121.895ZM1007.93 100.909L1006.34 99.9008L1006.33 99.9206L1006.32 99.9407L1007.93 100.909ZM1036.45 91.6867L1036.48 93.5685L1038.08 93.5357L1038.31 91.9529L1036.45 91.6867ZM1015.18 115.778L1016.77 114.767L1016.74 114.725L1016.71 114.684L1015.18 115.778ZM1030.99 115.684L1029.96 114.103L1029.94 114.121L1029.91 114.14L1030.99 115.684ZM1035.79 108.249L1034.01 107.628L1034 107.669L1033.98 107.711L1035.79 108.249ZM1036.45 97.8977H1038.33V95.9501L1036.38 96.0167L1036.45 97.8977ZM1019.6 101.85L1020.56 103.466L1020.57 103.461L1020.58 103.455L1019.6 101.85ZM1036.63 90.3693H1038.52C1038.52 86.9195 1037.55 84.0022 1035.3 81.983C1033.1 79.9977 1029.98 79.1707 1026.28 79.1707V81.0528V82.9349C1029.49 82.9349 1031.54 83.6607 1032.79 84.7809C1033.99 85.8672 1034.75 87.6081 1034.75 90.3693H1036.63ZM1026.28 81.0528V79.1707C1019.07 79.1707 1013.22 81.0106 1009 84.9468L1010.28 86.3227L1011.57 87.6987C1014.88 84.6083 1019.69 82.9349 1026.28 82.9349V81.0528ZM1010.28 86.3227L1011.59 84.965L1006.88 80.448L1005.58 81.8057L1004.28 83.1634L1008.98 87.6805L1010.28 86.3227ZM1005.58 81.8057L1006.91 83.1365C1011.44 78.6047 1017.64 76.2535 1025.72 76.2535V74.3714V72.4893C1016.86 72.4893 1009.63 75.0942 1004.25 80.4748L1005.58 81.8057ZM1025.72 74.3714V76.2535H1026.19V74.3714V72.4893H1025.72V74.3714ZM1026.19 74.3714V76.2535C1032.04 76.2535 1036.09 77.8343 1038.71 80.6807C1041.35 83.5566 1042.84 88.0503 1042.84 94.5099H1044.73H1046.61C1046.61 87.5438 1045.01 81.9683 1041.48 78.1313C1037.92 74.2649 1032.7 72.4893 1026.19 72.4893V74.3714ZM1044.73 94.5099H1042.84V115.778H1044.73H1046.61V94.5099H1044.73ZM1044.73 115.778H1042.84C1042.84 118.714 1043.93 122.159 1045.87 126.03L1047.55 125.188L1049.23 124.347C1047.4 120.689 1046.61 117.861 1046.61 115.778H1044.73ZM1047.55 125.188L1047.6 123.307L1040.73 123.119L1040.68 125L1040.63 126.881L1047.5 127.07L1047.55 125.188ZM1040.68 125L1041.63 123.376C1039.72 122.257 1038.54 120.33 1038.32 117.154L1036.45 117.283L1034.57 117.413C1034.85 121.515 1036.5 124.732 1039.73 126.624L1040.68 125ZM1036.45 117.283L1034.82 116.341C1032.07 121.082 1028.31 123.611 1023.43 124.165L1023.65 126.035L1023.86 127.905C1030.03 127.204 1034.79 123.899 1038.07 118.226L1036.45 117.283ZM1023.65 126.035V124.153C1017.81 124.153 1013.72 122.827 1011.06 120.482L1009.81 121.895L1008.57 123.307C1012.18 126.483 1017.31 127.917 1023.65 127.917V126.035ZM1009.81 121.895L1011.06 120.482C1008.29 118.049 1006.99 115.224 1006.99 111.919H1005.11H1003.23C1003.23 116.394 1005.06 120.22 1008.57 123.307L1009.81 121.895ZM1005.11 111.919H1006.99V111.637H1005.11H1003.23V111.919H1005.11ZM1005.11 111.637H1006.99C1006.99 107.929 1007.86 104.694 1009.54 101.877L1007.93 100.909L1006.32 99.9407C1004.24 103.398 1003.23 107.315 1003.23 111.637H1005.11ZM1007.93 100.909L1009.52 101.917C1011.05 99.5051 1013.9 97.4791 1018.41 96.0183C1022.93 94.5594 1028.93 93.7233 1036.48 93.5685L1036.45 91.6867L1036.41 89.805C1028.66 89.9639 1022.25 90.8216 1017.26 92.4368C1012.27 94.0502 1008.51 96.4785 1006.34 99.9008L1007.93 100.909ZM1036.45 91.6867L1038.31 91.9529L1038.5 90.6354L1036.63 90.3693L1034.77 90.1031L1034.58 91.4206L1036.45 91.6867ZM1015.18 115.778L1013.59 116.788C1014.37 118.015 1015.67 118.725 1017.07 119.136C1018.49 119.552 1020.23 119.73 1022.24 119.73V117.848V115.966C1020.41 115.966 1019.07 115.799 1018.13 115.524C1017.18 115.246 1016.86 114.921 1016.77 114.767L1015.18 115.778ZM1022.24 117.848V119.73C1026.21 119.73 1029.56 118.975 1032.06 117.228L1030.99 115.684L1029.91 114.14C1028.28 115.279 1025.79 115.966 1022.24 115.966V117.848ZM1030.99 115.684L1032.01 117.264C1034.66 115.548 1036.45 112.596 1037.59 108.787L1035.79 108.249L1033.98 107.711C1032.99 111.054 1031.58 113.058 1029.96 114.103L1030.99 115.684ZM1035.79 108.249L1037.56 108.871C1038.02 107.566 1038.33 106.349 1038.33 105.332H1036.45H1034.56C1034.56 105.695 1034.43 106.423 1034.01 107.628L1035.79 108.249ZM1036.45 105.332H1038.33V97.8977H1036.45H1034.56V105.332H1036.45ZM1036.45 97.8977L1036.38 96.0167C1028.89 96.2727 1022.9 97.6177 1018.62 100.245L1019.6 101.85L1020.58 103.455C1024.08 101.314 1029.32 100.025 1036.51 99.7787L1036.45 97.8977ZM1019.6 101.85L1018.64 100.234C1014.34 102.798 1011.88 106.32 1011.88 110.79H1013.77H1015.65C1015.65 107.983 1017.08 105.544 1020.56 103.466L1019.6 101.85ZM1013.77 110.79H1011.88C1011.88 113.095 1012.43 115.165 1013.65 116.872L1015.18 115.778L1016.71 114.684C1016.05 113.755 1015.65 112.501 1015.65 110.79H1013.77ZM1071.22 125.282V127.164H1073.1V125.282H1071.22ZM1062.56 125.282H1060.68V127.164H1062.56V125.282ZM1062.56 55.3621V53.48H1060.68V55.3621H1062.56ZM1071.22 55.3621H1073.1V53.48H1071.22V55.3621ZM1071.22 125.282V123.4H1062.56V125.282V127.164H1071.22V125.282ZM1062.56 125.282H1064.44V55.3621H1062.56H1060.68V125.282H1062.56ZM1062.56 55.3621V57.2442H1071.22V55.3621V53.48H1062.56V55.3621ZM1071.22 55.3621H1069.33V125.282H1071.22H1073.1V55.3621H1071.22ZM1128.97 103.826V105.708H1130.86V103.826H1128.97ZM1095.19 103.826V101.944H1093.12L1093.32 104.007L1095.19 103.826ZM1099.61 114.837L1100.85 113.42L1100.85 113.418L1099.61 114.837ZM1127.56 112.202H1129.44V108.015L1126.31 110.794L1127.56 112.202ZM1127.56 121.236L1128.57 122.825L1129.44 122.271V121.236H1127.56ZM1093.03 118.977L1094.44 117.733L1094.44 117.731L1093.03 118.977ZM1093.12 82.4644L1094.53 83.7115V83.7115L1093.12 82.4644ZM1119.38 77.2886L1120.34 75.6733L1120.3 75.6502L1120.26 75.629L1119.38 77.2886ZM1095.19 96.392L1093.32 96.1468L1093.04 98.2741H1095.19V96.392ZM1121.63 96.392V98.2741H1123.65L1123.51 96.2598L1121.63 96.392ZM1118.53 86.605L1119.96 85.3874L1119.95 85.3749L1119.94 85.3626L1118.53 86.605ZM1128.97 103.826V101.944H1095.19V103.826V105.708H1128.97V103.826ZM1095.19 103.826L1093.32 104.007C1093.84 109.414 1095.4 113.661 1098.38 116.255L1099.61 114.837L1100.85 113.418C1098.93 111.747 1097.55 108.653 1097.06 103.646L1095.19 103.826ZM1099.61 114.837L1098.37 116.253C1101.31 118.821 1105.15 120.012 1109.68 120.012V118.13V116.248C1105.81 116.248 1102.94 115.244 1100.85 113.42L1099.61 114.837ZM1109.68 118.13V120.012C1117.49 120.012 1123.93 117.939 1128.81 113.609L1127.56 112.202L1126.31 110.794C1122.28 114.369 1116.81 116.248 1109.68 116.248V118.13ZM1127.56 112.202H1125.68V121.236H1127.56H1129.44V112.202H1127.56ZM1127.56 121.236L1126.55 119.646C1121.75 122.695 1116.11 124.247 1109.59 124.247V126.129V128.011C1116.74 128.011 1123.09 126.301 1128.57 122.825L1127.56 121.236ZM1109.59 126.129V124.247C1103.24 124.247 1098.25 122.062 1094.44 117.733L1093.03 118.977L1091.61 120.222C1096.2 125.429 1102.26 128.011 1109.59 128.011V126.129ZM1093.03 118.977L1094.44 117.731C1090.52 113.292 1088.51 107.67 1088.51 100.721H1086.63H1084.74C1084.74 108.452 1087 115.001 1091.62 120.223L1093.03 118.977ZM1086.63 100.721H1088.51C1088.51 93.8465 1090.54 88.2209 1094.53 83.7115L1093.12 82.4644L1091.71 81.2174C1087.04 86.4949 1084.74 93.0402 1084.74 100.721H1086.63ZM1093.12 82.4644L1094.53 83.7115C1098.49 79.2386 1103.52 77.0063 1109.78 77.0063V75.1242V73.2421C1102.48 73.2421 1096.41 75.9033 1091.71 81.2174L1093.12 82.4644ZM1109.78 75.1242V77.0063C1113.23 77.0063 1116.11 77.679 1118.49 78.9482L1119.38 77.2886L1120.26 75.629C1117.24 74.0123 1113.72 73.2421 1109.78 73.2421V75.1242ZM1119.38 77.2886L1118.41 78.9039C1123.89 82.1793 1127.09 90.0664 1127.09 103.826H1128.97H1130.86C1130.86 89.8565 1127.66 80.0518 1120.34 75.6733L1119.38 77.2886ZM1109.68 83.4996V81.6175H1109.49V83.4996V85.3817H1109.68V83.4996ZM1109.49 83.4996V81.6175C1104.97 81.6175 1101.18 82.7779 1098.35 85.3246C1095.54 87.8643 1093.93 91.5617 1093.32 96.1468L1095.19 96.392L1097.06 96.6372C1097.58 92.6274 1098.92 89.8785 1100.87 88.1207C1102.82 86.37 1105.61 85.3817 1109.49 85.3817V83.4996ZM1095.19 96.392V98.2741H1121.63V96.392V94.5099H1095.19V96.392ZM1121.63 96.392L1123.51 96.2598C1123.19 91.641 1122.1 87.904 1119.96 85.3874L1118.53 86.605L1117.09 87.8227C1118.47 89.4467 1119.45 92.2343 1119.76 96.5242L1121.63 96.392ZM1118.53 86.605L1119.94 85.3626C1117.62 82.7227 1114.04 81.6175 1109.68 81.6175V83.4996V85.3817C1113.48 85.3817 1115.8 86.3467 1117.11 87.8475L1118.53 86.605ZM1177.84 86.2286L1178.35 88.0393L1180.15 87.5286L1179.65 85.7249L1177.84 86.2286ZM1171.54 88.0166L1169.74 88.5873L1170.29 90.3248L1172.05 89.8273L1171.54 88.0166ZM1166.27 82.9349L1165.78 84.7544L1165.81 84.7604L1165.83 84.7659L1166.27 82.9349ZM1154.41 82.1821L1154.26 80.3055L1154.25 80.3065L1154.41 82.1821ZM1149.33 84.0642L1150.58 85.4709L1150.6 85.452L1150.62 85.4325L1149.33 84.0642ZM1150.83 93.8512L1151.67 92.1678V92.1677L1150.83 93.8512ZM1158.55 96.0156L1158.82 94.1524L1158.8 94.1501L1158.78 94.148L1158.55 96.0156ZM1167.77 97.7095L1168.19 95.8749L1168.18 95.8731L1167.77 97.7095ZM1175.49 102.038L1174.14 103.35L1174.15 103.36L1174.16 103.369L1175.49 102.038ZM1173.79 121.33L1175 122.778L1175 122.772L1175.01 122.767L1173.79 121.33ZM1137.94 112.484L1137.58 110.637L1135.76 110.992L1136.09 112.82L1137.94 112.484ZM1145.19 111.072L1147.02 110.667L1146.63 108.874L1144.83 109.225L1145.19 111.072ZM1167.77 115.589L1168.84 117.139V117.139L1167.77 115.589ZM1167.21 104.673L1166.45 106.395L1166.46 106.399L1166.47 106.403L1167.21 104.673ZM1159.4 102.697L1159.62 100.829V100.829L1159.4 102.697ZM1150.27 101.191L1150.65 99.3488L1150.64 99.3473L1150.27 101.191ZM1142.36 97.1448L1141.05 98.4954L1141.06 98.5049L1141.07 98.5142L1142.36 97.1448ZM1171.16 77.0063L1170.28 78.6697L1170.29 78.6765L1170.3 78.6831L1171.16 77.0063ZM1177.84 86.2286L1177.33 84.4179L1171.02 86.2059L1171.54 88.0166L1172.05 89.8273L1178.35 88.0393L1177.84 86.2286ZM1171.54 88.0166L1173.33 87.446C1172.27 84.1094 1170.03 81.8968 1166.7 81.104L1166.27 82.9349L1165.83 84.7659C1167.77 85.2279 1169.05 86.403 1169.74 88.5873L1171.54 88.0166ZM1166.27 82.9349L1166.75 81.1155C1164.44 80.504 1161.95 80.2059 1159.3 80.2059V82.088V83.9701C1161.67 83.9701 1163.83 84.2366 1165.78 84.7544L1166.27 82.9349ZM1159.3 82.088V80.2059C1156.87 80.2059 1155.16 80.2363 1154.26 80.3055L1154.41 82.1821L1154.55 84.0587C1155.28 84.0024 1156.84 83.9701 1159.3 83.9701V82.088ZM1154.41 82.1821L1154.25 80.3065C1151.76 80.5144 1149.59 81.2284 1148.03 82.6959L1149.33 84.0642L1150.62 85.4325C1151.32 84.767 1152.54 84.2262 1154.56 84.0577L1154.41 82.1821ZM1149.33 84.0642L1148.08 82.6575C1146.38 84.1645 1145.75 86.4298 1145.75 88.9577H1147.63H1149.51C1149.51 86.9686 1150.01 85.9714 1150.58 85.4709L1149.33 84.0642ZM1147.63 88.9577H1145.75C1145.75 90.3736 1146.1 91.6984 1146.86 92.8579C1147.61 94.0085 1148.69 94.8855 1149.99 95.5346L1150.83 93.8512L1151.67 92.1677C1150.84 91.7503 1150.32 91.2784 1150.01 90.7979C1149.7 90.3263 1149.51 89.7376 1149.51 88.9577H1147.63ZM1150.83 93.8512L1149.99 95.5346C1152.36 96.7185 1155.15 97.4871 1158.32 97.8831L1158.55 96.0156L1158.78 94.148C1155.93 93.7912 1153.57 93.1169 1151.67 92.1678L1150.83 93.8512ZM1158.55 96.0156L1158.28 97.8788C1161.31 98.3108 1164.33 98.8665 1167.36 99.5459L1167.77 97.7095L1168.18 95.8731C1165.06 95.1723 1161.94 94.5986 1158.82 94.1524L1158.55 96.0156ZM1167.77 97.7095L1167.35 99.544C1170.01 100.154 1172.26 101.417 1174.14 103.35L1175.49 102.038L1176.84 100.727C1174.45 98.2682 1171.55 96.6453 1168.19 95.8749L1167.77 97.7095ZM1175.49 102.038L1174.16 103.369C1175.83 105.044 1176.81 107.574 1176.81 111.261H1178.69H1180.57C1180.57 106.917 1179.41 103.298 1176.82 100.707L1175.49 102.038ZM1178.69 111.261H1176.81C1176.81 114.61 1175.46 117.457 1172.58 119.893L1173.79 121.33L1175.01 122.767C1178.66 119.682 1180.57 115.816 1180.57 111.261H1178.69ZM1173.79 121.33L1172.59 119.882C1169.74 122.25 1165.32 123.588 1159.02 123.588V125.471V127.353C1165.77 127.353 1171.2 125.931 1175 122.778L1173.79 121.33ZM1159.02 125.471V123.588C1152.96 123.588 1148.47 122.532 1145.37 120.621C1142.35 118.758 1140.49 115.991 1139.79 112.148L1137.94 112.484L1136.09 112.82C1136.96 117.635 1139.4 121.361 1143.4 123.826C1147.32 126.245 1152.59 127.353 1159.02 127.353V125.471ZM1137.94 112.484L1138.3 114.331L1145.55 112.92L1145.19 111.072L1144.83 109.225L1137.58 110.637L1137.94 112.484ZM1145.19 111.072L1143.35 111.478C1143.97 114.283 1145.82 116.312 1148.56 117.58C1151.22 118.811 1154.76 119.354 1159.02 119.354V117.472V115.589C1155 115.589 1152.09 115.066 1150.14 114.164C1148.27 113.298 1147.35 112.128 1147.02 110.667L1145.19 111.072ZM1159.02 117.472V119.354C1163.15 119.354 1166.54 118.725 1168.84 117.139L1167.77 115.589L1166.7 114.04C1165.36 114.963 1162.92 115.589 1159.02 115.589V117.472ZM1167.77 115.589L1168.84 117.139C1171.34 115.413 1172.38 112.575 1172.38 109.19H1170.5H1168.62C1168.62 111.828 1167.84 113.256 1166.7 114.04L1167.77 115.589ZM1170.5 109.19H1172.38C1172.38 107.803 1172.01 106.51 1171.2 105.399C1170.4 104.306 1169.27 103.51 1167.95 102.943L1167.21 104.673L1166.47 106.403C1167.34 106.777 1167.86 107.205 1168.16 107.617C1168.44 108.012 1168.62 108.507 1168.62 109.19H1170.5ZM1167.21 104.673L1167.97 102.951C1165.62 101.916 1162.83 101.221 1159.62 100.829L1159.4 102.697L1159.17 104.565C1162.11 104.926 1164.53 105.549 1166.45 106.395L1167.21 104.673ZM1159.4 102.697L1159.62 100.829C1156.6 100.459 1153.61 99.9654 1150.65 99.3488L1150.27 101.191L1149.88 103.034C1152.95 103.672 1156.04 104.182 1159.17 104.565L1159.4 102.697ZM1150.27 101.191L1150.64 99.3473C1147.9 98.787 1145.58 97.5957 1143.65 95.7754L1142.36 97.1448L1141.07 98.5142C1143.53 100.835 1146.49 102.341 1149.89 103.035L1150.27 101.191ZM1142.36 97.1448L1143.67 95.7943C1141.98 94.1551 1141.05 91.833 1141.05 88.5813H1139.16H1137.28C1137.28 92.607 1138.47 95.9939 1141.05 98.4954L1142.36 97.1448ZM1139.16 88.5813H1141.05C1141.05 84.3494 1142.45 81.4405 1145.08 79.5107C1147.81 77.5015 1152.14 76.3476 1158.36 76.3476V74.4655V72.5834C1151.79 72.5834 1146.51 73.782 1142.85 76.4781C1139.07 79.2536 1137.28 83.4026 1137.28 88.5813H1139.16ZM1158.36 74.4655V76.3476C1163.52 76.3476 1167.45 77.1714 1170.28 78.6697L1171.16 77.0063L1172.04 75.3429C1168.47 73.4535 1163.87 72.5834 1158.36 72.5834V74.4655ZM1171.16 77.0063L1170.3 78.6831C1172.9 80.0072 1174.87 82.5596 1176.03 86.7324L1177.84 86.2286L1179.65 85.7249C1178.3 80.8635 1175.82 77.2678 1172.01 75.3295L1171.16 77.0063Z" fill="#F37334" mask="url(#path-3-outside-1_3_123)"/>
</svg>
