<svg width="199" height="199" viewBox="0 0 199 199" fill="none" xmlns="http://www.w3.org/2000/svg">
<circle cx="99.5" cy="99.5" r="92" stroke="#F37334" stroke-width="15"/>
<path fill-rule="evenodd" clip-rule="evenodd" d="M95.774 31.5254C94.7796 29.5159 93.9673 27.6855 93.9673 27.4576C93.9673 26.2321 97.8894 27.4802 105.288 31.0576C119.499 37.9307 123.655 46.1916 116.524 53.3881C112.231 57.7208 107.191 57.9762 102.714 54.0898C100.076 51.7999 99.3319 49.8656 98.5421 43.2419C98.0123 38.8078 96.7673 33.5348 95.774 31.5254ZM112.849 48.1653C112.897 45.4017 109.767 39.161 106.54 35.586C105.153 34.0491 102.954 32.2365 101.653 31.5588C100.182 30.7915 100.779 31.9084 103.233 34.5156C105.402 36.821 108.446 41.3184 109.995 44.5103C111.544 47.7011 112.829 49.3466 112.849 48.1653ZM122.335 66.2955C124.93 63.8028 130.917 59.8675 135.637 57.5502C143.425 53.7258 147.176 52.4944 147.176 53.7628C147.176 54.0194 146.124 56.5693 144.837 59.4308C143.315 62.816 142.489 67.2573 142.472 72.1496C142.43 84.3805 138.801 89.0938 129.427 89.0938C122.221 89.0938 117.616 84.1717 117.616 76.4716C117.616 71.4385 118.129 70.3335 122.335 66.2955ZM128.065 76.2664C129.48 72.368 132.905 66.7001 136.001 63.1406C138.996 59.6945 141.235 56.876 140.978 56.876C140.719 56.876 138.348 58.7411 135.71 61.0202C130.789 65.2705 126.803 72.3895 125.503 79.2495C124.419 84.9723 125.262 83.9915 128.065 76.2664ZM112.363 130.858C121.224 130.858 133.804 124.073 148.229 111.513C153.178 107.205 159 105.481 159 108.324C159 110.743 150.88 120.873 142.696 128.664C133.11 137.79 117.267 148.758 113.673 148.754C112.265 148.754 104.993 147.093 97.5145 145.066C87.0336 142.223 82.1207 141.479 76.0786 141.816L68.2415 142.256L61.8896 133.023C58.3968 127.945 55.5389 122.858 55.5389 121.717C55.5389 118.604 64.8587 112.047 72.4663 109.809C79.342 107.785 88.1309 108.278 106.383 111.706C109.634 112.317 116.313 112.849 121.222 112.887C130.769 112.964 132.987 114.04 132.987 118.592C132.987 122.301 129.837 123.532 117.616 124.605C108.403 125.414 107.533 125.712 107.187 128.173C106.841 130.63 107.28 130.858 112.363 130.858ZM40.0327 130.339C39.7347 129.555 41.506 127.462 43.9678 125.687C46.4296 123.913 49.0876 122.605 49.8739 122.782C51.8959 123.234 66.6879 145.21 66.0576 146.825C65.2583 148.877 57.3633 153.702 56.0982 152.914C54.8141 152.112 40.8533 132.494 40.0327 130.339Z" fill="#F37334"/>
<path fill-rule="evenodd" clip-rule="evenodd" d="M55.183 59.1802C49.777 60.5644 49.4896 61.2039 53.3597 63.2528C58.2702 65.8517 64.7806 73.2498 68.6802 80.6635C75.5181 93.6616 83.2996 98.579 93.3761 96.27C105.742 93.4361 111.099 76.5504 102.793 66.5891C97.8503 60.661 91.6971 58.9093 74.4575 58.5251C66.0032 58.3366 57.3302 58.6313 55.183 59.1802ZM98.697 84.464C98.697 81.5835 86.8196 70.3621 80.4275 67.2036C76.8613 65.4424 71.3998 63.7062 68.2888 63.347L62.6334 62.6919L70.3462 65.4519C80.1177 68.9481 89.3204 74.8882 94.5881 81.099C96.8477 83.7636 98.697 85.2778 98.697 84.464Z" fill="#F37334"/>
</svg>
